<?xml version="1.0" encoding="UTF-8"?>
<svg version="1.1" xmlns="http://www.w3.org/2000/svg" width="512" height="512">
<path d="M0 0 C0.77275644 -0.00320648 1.54551288 -0.00641296 2.34168619 -0.0097166 C4.92240229 -0.01799577 7.50288505 -0.01209965 10.08360481 -0.00622082 C11.95604324 -0.00924245 13.82848044 -0.01313199 15.70091546 -0.01781338 C20.83987032 -0.02810058 25.97875547 -0.02590971 31.11771607 -0.02163279 C36.66247515 -0.01916689 42.20721738 -0.02817804 47.75197029 -0.03567028 C58.61220709 -0.048423 69.47241918 -0.05021026 80.33266221 -0.04787002 C89.1596203 -0.04608737 97.98657087 -0.04783536 106.81352806 -0.05209446 C108.06957092 -0.05268965 109.32561377 -0.05328484 110.61971853 -0.05389806 C113.17132695 -0.05510981 115.72293536 -0.05632394 118.27454378 -0.05754044 C135.40801039 -0.06532811 152.54147418 -0.06924646 169.67494202 -0.06522369 C170.34478026 -0.06506732 171.01461851 -0.06491094 171.70475488 -0.06474983 C175.09966202 -0.06394406 178.49456916 -0.06309829 181.88947628 -0.06223653 C182.5637002 -0.06206544 183.23792412 -0.06189435 183.93257906 -0.06171808 C185.29602302 -0.06137142 186.65946698 -0.06102289 188.02291093 -0.06067249 C209.23815582 -0.05531528 230.45335914 -0.06324631 251.66859627 -0.08170605 C275.51132883 -0.10242778 299.35403583 -0.11311736 323.19678032 -0.10913056 C335.8183807 -0.10721734 348.43994321 -0.10971793 361.06153679 -0.1238451 C371.80619173 -0.13574971 382.55078549 -0.13717408 393.29544125 -0.12505493 C398.77714678 -0.11915987 404.25874035 -0.11808426 409.74043846 -0.13005733 C414.76029489 -0.14089423 419.77994559 -0.1378388 424.7997923 -0.12379565 C426.61398548 -0.12114269 428.42819466 -0.12353402 430.24237214 -0.13153151 C443.30057623 -0.1850925 454.58743154 0.46042943 464.95326424 9.25447559 C467.31553574 11.74827669 469.24482605 14.2755369 470.95326424 17.25447559 C471.44446665 18.10317676 471.44446665 18.10317676 471.94559234 18.96902341 C475.54271633 25.96184987 475.51730776 32.45738003 475.46792793 40.20169544 C475.47325974 41.60747495 475.48032908 43.01324874 475.48897499 44.41901177 C475.50754583 48.26357055 475.5013167 52.10774266 475.49082196 55.95231712 C475.48381395 60.10583529 475.49984013 64.25927529 475.51281929 68.41277027 C475.53443889 76.54304006 475.53433745 84.67316977 475.52619375 92.80345885 C475.51988789 99.41404391 475.52103616 106.0245882 475.52746582 112.63517284 C475.52836748 113.57688694 475.52926913 114.51860104 475.53019811 115.48885193 C475.53204936 117.40210636 475.53391192 119.31536078 475.53578567 121.22861519 C475.5523575 139.16260779 475.54365068 157.09652168 475.52680009 175.03050955 C475.51210876 191.42424395 475.52672464 207.81779497 475.55557025 224.21150575 C475.58499116 241.05809348 475.59592835 257.90459667 475.58638805 274.75120896 C475.58536554 276.65824964 475.58437093 278.56529034 475.58340454 280.47233105 C475.58292815 281.41054921 475.58245176 282.34876738 475.58196094 283.3154164 C475.57980009 289.91330784 475.58958351 296.51111894 475.60417557 303.10899258 C475.6217263 311.15673482 475.62154252 319.20424347 475.59882391 327.25197665 C475.58770566 331.35483373 475.58446383 335.45727969 475.60312462 339.56011868 C475.62001638 343.32256924 475.61346245 347.0842529 475.58890783 350.84665456 C475.58176774 352.83858829 475.59898303 354.83056448 475.61731917 356.82242662 C475.5077906 367.45765348 473.03422542 376.13369869 465.89076424 384.19197559 C457.02020716 392.35170338 446.33934631 394.38334119 434.61966133 394.37473011 C433.9153929 394.37558454 433.21112448 394.37643896 432.48551458 394.37731928 C430.14409015 394.37895613 427.80273862 394.37348233 425.46132088 394.36800098 C423.77558074 394.3677187 422.08984048 394.36787766 420.40410042 394.36844349 C415.84060006 394.36872985 411.2771261 394.36285919 406.71363187 394.35586953 C401.93970515 394.34960914 397.1657778 394.34903007 392.39184761 394.34784412 C383.35746165 394.34473873 374.32308782 394.33653601 365.2887072 394.32649463 C355.00095507 394.31530892 344.71320237 394.30981685 334.42544568 394.3047992 C313.2680451 394.29435274 292.11065543 394.27676862 270.95326424 394.25447559 C271.56208207 397.44883796 272.18246092 400.6408525 272.80482674 403.83260059 C272.97570808 404.72994923 273.14658943 405.62729786 273.322649 406.55183887 C275.47202994 417.50416224 278.94183765 429.13030086 288.34779549 436.00447559 C297.33162641 441.60758453 305.64650517 443.21315412 316.10560799 443.43025684 C317.21226814 443.4541045 318.3189283 443.47795216 319.45912361 443.50252247 C321.7427888 443.5454143 324.02670196 443.57670664 326.31068611 443.59627247 C334.69796487 443.80607642 341.12370323 445.12119841 347.70326424 450.50447559 C354.20105702 458.44622233 356.90333928 464.8986576 355.95326424 475.25447559 C354.2221332 482.46056924 350.89246203 487.82607345 344.95326424 492.25447559 C338.35726158 495.71359043 332.38435655 496.83832249 325.01039314 496.76241016 C323.58708404 496.77177011 323.58708404 496.77177011 322.13502121 496.78131914 C318.98303037 496.79716337 315.83182211 496.78467841 312.67982674 496.77205372 C310.40888712 496.77747863 308.13795103 496.78460336 305.86702156 496.79329395 C299.71828981 496.81148608 293.56982737 496.80447658 287.42109108 496.79177761 C280.97689289 496.78162873 274.53271727 496.79104854 268.08851814 496.79732227 C256.57552075 496.80505847 245.06266065 496.79265199 233.54968476 496.77228492 C223.12620806 496.75441564 212.7029096 496.75752029 202.27943611 496.77595997 C190.1539488 496.79740077 178.02860126 496.80531567 165.90309143 496.79351091 C159.49213954 496.78728475 153.08131023 496.78641636 146.67036629 496.79965687 C140.642301 496.81123767 134.61457128 496.80314844 128.58654213 496.78007984 C126.37831109 496.77480473 124.17005167 496.77628592 121.96183205 496.7851305 C118.93955585 496.79611674 115.91834432 496.78228477 112.89613533 496.76241016 C111.59600974 496.77579449 111.59600974 496.77579449 110.26961899 496.78944921 C102.28947724 496.68816967 95.13269644 494.45836418 89.07826424 489.12947559 C83.41537415 482.83737549 81.16731147 475.38867761 81.50013924 466.99666309 C82.67037106 459.91474294 86.39429835 453.75459083 91.95326424 449.25447559 C97.09780063 445.9082506 101.36378557 444.15591174 107.51185799 444.00838184 C108.62109627 443.97551075 109.73033455 443.94263966 110.87318611 443.90877247 C113.18300593 443.84849399 115.49290345 443.7911097 117.80287361 443.73689747 C130.58047631 443.34747082 141.56713948 442.43820795 151.64076424 434.00447559 C159.74916212 424.36205649 163.49432057 414.70187131 165.56654549 402.37947559 C165.70145393 401.59572559 165.83636238 400.81197559 165.97535896 400.00447559 C166.30468731 398.08838338 166.62944505 396.17150654 166.95326424 394.25447559 C165.6451588 394.25724097 165.6451588 394.25724097 164.31062698 394.26006222 C143.06859137 394.30427537 121.82656371 394.33734877 100.58449173 394.35809994 C90.31189125 394.36840236 80.03932153 394.38244293 69.7667408 394.4053545 C60.81075516 394.42532002 51.8547918 394.43819954 42.89878452 394.44265258 C38.15885081 394.4452546 33.41898084 394.45134895 28.67906761 394.46593571 C24.21235077 394.4795696 19.74572356 394.48368654 15.27898788 394.48069096 C13.6448251 394.48123853 12.01065914 394.48518124 10.37651443 394.49288654 C-4.03373357 394.55746724 -17.14095832 393.81578694 -28.35923576 383.69197559 C-36.46359704 374.71625936 -37.78247542 364.6095693 -37.67492485 352.92630482 C-37.67998082 351.51579632 -37.68721771 350.10529427 -37.69642299 348.69480675 C-37.71522274 344.85113796 -37.703182 341.00811184 -37.68570006 337.16446006 C-37.67226319 333.00696278 -37.6877855 328.84955566 -37.69952202 324.69206715 C-37.71785461 316.56116736 -37.70941632 308.43050865 -37.69143379 300.29961649 C-37.67738345 293.6905041 -37.67352022 287.08145695 -37.67687607 280.47233105 C-37.67735351 279.53015725 -37.67783095 278.58798345 -37.67832286 277.61725893 C-37.67934923 275.70303191 -37.68040459 273.7888049 -37.68148863 271.8745779 C-37.69004646 254.9672268 -37.67340893 238.0599918 -37.64365959 221.15266895 C-37.61481067 204.75678604 -37.60774635 188.36107029 -37.62315178 171.96516895 C-37.6399199 154.09457548 -37.64394297 136.22406128 -37.62644142 118.35346574 C-37.62459709 116.44736811 -37.62276236 114.54127048 -37.62093735 112.63517284 C-37.62002526 111.6974175 -37.61911317 110.75966216 -37.61817344 109.79349 C-37.61257291 103.19267059 -37.61587059 96.59188996 -37.6224823 89.99107265 C-37.63022046 81.9466262 -37.62344506 73.90234417 -37.59830726 65.85793082 C-37.58582503 61.75548558 -37.57965023 57.65329619 -37.59084892 53.55084133 C-37.60091462 49.79244984 -37.59238272 46.03456778 -37.56926774 42.27623811 C-37.56169366 40.27926308 -37.5736384 38.28224315 -37.58637148 36.28529435 C-37.4814491 24.90422856 -34.10195945 16.41710226 -26.04673576 8.25447559 C-18.05786594 2.15530581 -9.96026253 -0.06215792 0 0 Z M-16.48423576 24.81697559 C-18.71473579 28.29655563 -19.17160976 30.90831727 -19.16978359 34.94963074 C-19.17177464 35.92050446 -19.17376569 36.89137818 -19.17581707 37.89167231 C-19.17290423 38.96072647 -19.16999139 40.02978062 -19.16699028 41.13123035 C-19.1678447 42.26493763 -19.16869913 43.39864491 -19.16957945 44.56670696 C-19.17123341 48.38541583 -19.16571419 52.20408128 -19.16026115 56.02278614 C-19.15942316 58.75225827 -19.16009301 61.48172953 -19.16070366 64.21120167 C-19.16122851 70.09778453 -19.15808575 75.98435632 -19.15246582 81.87093639 C-19.14434558 90.38198693 -19.14173506 98.8930321 -19.14047783 107.40408609 C-19.13828814 121.21204774 -19.13163028 135.02000348 -19.12217522 148.82796192 C-19.11299897 162.24267516 -19.10591917 175.6573868 -19.1016674 189.07210255 C-19.10140468 189.89871215 -19.10114196 190.72532176 -19.10087127 191.57698014 C-19.09956625 195.72375596 -19.09830254 199.8705318 -19.09705937 204.01730764 C-19.08668933 238.42970125 -19.06899902 272.84208769 -19.04673576 307.25447559 C-13.76673576 307.25447559 -8.48673576 307.25447559 -3.04673576 307.25447559 C-3.04250382 305.87604072 -3.03827188 304.49760584 -3.03391171 303.07740021 C-2.93330436 270.3791886 -2.82760819 237.68099769 -2.71561882 204.98282314 C-2.70184873 200.96098802 -2.68812171 196.93915275 -2.67442131 192.91731739 C-2.67169301 192.11661956 -2.6689647 191.31592174 -2.66615372 190.49096034 C-2.62204103 177.51467643 -2.58142038 164.5383838 -2.54208315 151.56208464 C-2.50166236 138.25390075 -2.45750538 124.94573306 -2.40985721 111.63757306 C-2.38055824 103.42127094 -2.35419713 95.20497006 -2.33155679 86.98864684 C-2.31576694 81.35957584 -2.2963583 75.73052467 -2.27406735 70.10147568 C-2.26130175 66.85055107 -2.25070188 63.59964435 -2.24331665 60.34870243 C-2.23507076 56.82895253 -2.22079828 53.30927821 -2.20495415 49.78955555 C-2.20397604 48.75551993 -2.20299793 47.72148431 -2.20199019 46.65611428 C-2.19377852 45.24682954 -2.19377852 45.24682954 -2.18540096 43.8090744 C-2.1814139 42.58960256 -2.1814139 42.58960256 -2.17734629 41.34549493 C-2.04673576 39.25447559 -2.04673576 39.25447559 -1.04673576 36.25447559 C3.10898223 35.25326624 7.00146537 35.12916687 11.27000618 35.12863445 C12.0002781 35.12718101 12.73055003 35.12572757 13.4829514 35.12423009 C15.9371065 35.12057225 18.39119941 35.12405553 20.84535408 35.12749195 C22.61977038 35.12634005 24.39418643 35.12475206 26.16860199 35.12276471 C31.05033536 35.11858089 35.93204924 35.12065783 40.81378269 35.12375093 C46.07628132 35.12600863 51.33877654 35.12252355 56.60127449 35.119771 C66.91279692 35.11531832 77.22431207 35.11628756 87.53583479 35.11918364 C95.91429739 35.12143964 104.29275796 35.12174935 112.67122078 35.12065983 C113.86250505 35.1205066 115.05378932 35.12035336 116.28117311 35.12019549 C118.70104679 35.11987577 121.12092046 35.11955156 123.54079413 35.11922289 C146.24584521 35.11636957 168.95089226 35.11965282 191.65594268 35.12502326 C211.14893209 35.12949117 230.64191555 35.12871519 250.13490486 35.1241045 C272.75727181 35.11875614 295.37963522 35.11664425 318.00200272 35.11971676 C320.41310437 35.12003532 322.82420603 35.12034969 325.23530769 35.12065983 C326.42169661 35.1208141 327.60808553 35.12096838 328.83042562 35.12112733 C337.20134909 35.1219917 345.57227032 35.12053133 353.94319344 35.11818027 C364.14090967 35.11537918 374.33861821 35.11612711 384.53633356 35.12146102 C389.74192701 35.12409383 394.94750761 35.12511016 400.15310097 35.12181187 C404.91492705 35.11884032 409.67672832 35.12045616 414.43855214 35.12578942 C416.16459035 35.12690991 417.89063063 35.12633051 419.61666751 35.12391363 C421.95664921 35.12088748 424.29654513 35.12397726 426.63652229 35.12863445 C427.93815126 35.12879681 429.23978024 35.12895916 430.58085251 35.12912643 C433.50983768 35.23799387 436.11180012 35.56990064 438.95326424 36.25447559 C439.90153171 39.09927801 440.08228692 40.859843 440.09192944 43.8090744 C440.09740388 44.74859756 440.10287832 45.68812072 440.10851866 46.65611428 C440.10998582 48.20716771 440.10998582 48.20716771 440.11148262 49.78955555 C440.1164206 50.88651086 440.12135857 51.98346616 440.12644619 53.11366254 C440.14186619 56.80797821 440.150194 60.50227643 440.1585865 64.19661427 C440.16816149 66.83741989 440.17812774 69.47822132 440.18858528 72.11902332 C440.21035439 77.81406584 440.22849729 83.50911071 440.24419022 89.20417309 C440.26688489 97.43831704 440.29502827 105.67243524 440.32450949 113.90655736 C440.37219034 127.2652759 440.41545319 140.62400497 440.45594978 153.98274708 C440.4953022 166.96094551 440.53672782 179.93913459 440.58094978 192.91731739 C440.58367406 193.71704403 440.58639833 194.51677068 440.58920515 195.34073146 C440.60288459 199.35265077 440.61660487 203.36456994 440.63034546 207.37648904 C440.74431799 240.66913198 440.85105222 273.96179445 440.95326424 307.25447559 C446.23326424 307.25447559 451.51326424 307.25447559 456.95326424 307.25447559 C457.04451133 272.08548714 457.11530122 236.91652598 457.15752555 201.74744403 C457.16252839 197.59557219 457.16770568 193.44370059 457.1729908 189.29182911 C457.17404004 188.46526499 457.17508928 187.63870087 457.17617032 186.78708936 C457.19357635 173.4028388 457.22511512 160.01865695 457.26187542 146.63444715 C457.29927935 132.90137693 457.32149893 119.16834271 457.32961822 105.43522364 C457.33510713 96.96088234 457.35244438 88.48673526 457.3849301 80.01245374 C457.40607124 74.2015986 457.4124652 68.39084388 457.40726975 62.57995307 C457.40470725 59.22706088 457.41082474 55.87478177 457.43008614 52.52190304 C457.44995662 48.88507972 457.44521306 45.24909063 457.4342823 41.61224842 C457.44593367 40.55484563 457.45758503 39.49744285 457.46958947 38.40799755 C457.41859248 32.14022055 456.69807142 28.3459419 452.95326424 23.25447559 C447.46688539 18.99973281 443.34307157 18.10615501 436.57865047 18.12025452 C435.81781756 18.11790229 435.05698464 18.11555006 434.27309617 18.11312655 C431.70291446 18.10642656 429.13278319 18.10689507 426.56259346 18.10730457 C424.70954489 18.10400657 422.85649703 18.10028114 421.0034501 18.09616309 C415.89496376 18.08612776 410.78648917 18.08242384 405.67799437 18.07977378 C400.1747701 18.07587529 394.67155518 18.06629666 389.16833687 18.05756092 C375.87021348 18.03778397 362.57208932 18.02772889 349.2739549 18.01883313 C343.01538196 18.01445238 336.75680987 18.00908503 330.49823761 18.00384426 C309.69990185 17.986831 288.90156639 17.97231109 268.10322475 17.96509552 C266.75796495 17.96462076 265.41270515 17.96414487 264.06744535 17.96366786 C263.06674711 17.96331329 263.06674711 17.96331329 262.04583274 17.96295157 C258.66577409 17.96175036 255.28571545 17.96053491 251.90565681 17.95930958 C251.23487233 17.95906943 250.56408785 17.95882928 249.87297657 17.95858185 C228.1231036 17.95068841 206.37328515 17.9272559 184.62343599 17.89475363 C161.63188962 17.8604585 138.64036578 17.84074582 115.64879102 17.83745128 C103.11435076 17.83528397 90.57999064 17.82650304 78.04557419 17.8009901 C67.37246597 17.77931622 56.69945734 17.77121638 46.02632961 17.78095689 C40.57929808 17.78551114 35.13247219 17.78354998 29.68546867 17.76419544 C24.69939589 17.74663146 19.71367979 17.74750644 14.72760358 17.76309273 C12.92338626 17.7654791 11.11914469 17.7610922 9.31496457 17.74926408 C6.86190417 17.73417753 4.4101129 17.74379435 1.9570837 17.75949097 C1.25700191 17.74926876 0.55692011 17.73904655 -0.16437629 17.72851458 C-6.74694154 17.82041141 -11.98296456 20.08486997 -16.48423576 24.81697559 Z M14.95326424 52.25447559 C14.95326424 136.40447559 14.95326424 220.55447559 14.95326424 307.25447559 C149.59326424 307.25447559 284.23326424 307.25447559 422.95326424 307.25447559 C422.95326424 223.10447559 422.95326424 138.95447559 422.95326424 52.25447559 C288.31326424 52.25447559 153.67326424 52.25447559 14.95326424 52.25447559 Z M-19.04673576 325.25447559 C-22.27163886 359.95460479 -22.27163886 359.95460479 -15.04673576 371.25447559 C-9.42523745 376.15913855 -2.62494801 376.40394405 4.47747612 376.38590336 C5.23018689 376.38795599 5.98289766 376.39000863 6.75841784 376.39212346 C9.28893887 376.39779268 11.81940546 376.39633631 14.34993172 376.39491749 C16.17924476 376.39750116 18.00855723 376.40051433 19.83786893 376.40392089 C24.87149826 376.41199377 29.90511333 376.41378062 34.93874836 376.41451836 C40.36492674 376.41636839 45.79109771 376.42391544 51.2172718 376.43065357 C63.08496912 376.44423911 74.95266306 376.45026186 86.82036686 376.45466423 C94.2289169 376.45742608 101.63746563 376.46166331 109.04601479 376.4661684 C129.55362427 376.47836097 150.06123271 376.48866056 170.56884575 376.4920435 C172.53786535 376.49237284 172.53786535 376.49237284 174.54666312 376.49270885 C175.86250039 376.49292712 177.17833767 376.4931454 178.5340488 376.49337029 C181.20047998 376.49381376 183.86691117 376.49425996 186.53334236 376.49470997 C187.19446125 376.49481936 187.85558015 376.49492875 188.53673295 376.49504146 C209.3084038 376.49855944 230.08004323 376.51314916 250.85170174 376.53572559 C274.18753284 376.56107109 297.52334186 376.57617426 320.85918736 376.57741141 C333.21532049 376.57832862 345.57140935 376.58409244 357.92753029 376.60223103 C368.44793818 376.6176203 378.96828812 376.62275937 389.48870513 376.61449292 C394.85685488 376.61058238 400.22488787 376.61153583 405.5930233 376.62555027 C410.50808638 376.63826463 415.42294466 376.63711329 420.33800736 376.62495956 C422.1152626 376.6229983 423.89253222 376.62610073 425.66976723 376.63480392 C440.18399437 377.02813388 440.18399437 377.02813388 452.89076424 370.81697559 C463.58461866 357.53067162 456.95326424 346.03180205 456.95326424 325.25447559 C299.87326424 325.25447559 142.79326424 325.25447559 -19.04673576 325.25447559 Z M184.95326424 394.25447559 C183.96326424 400.52447559 182.97326424 406.79447559 181.95326424 413.25447559 C178.71749376 424.57967225 174.48041211 434.46375378 167.95326424 444.25447559 C201.61326424 444.25447559 235.27326424 444.25447559 269.95326424 444.25447559 C267.31326424 439.63447559 264.67326424 435.01447559 261.95326424 430.25447559 C256.72714998 418.4086166 254.77701386 407.02072294 252.95326424 394.25447559 C230.51326424 394.25447559 208.07326424 394.25447559 184.95326424 394.25447559 Z M100.95326424 466.25447559 C99.78877542 469.15798683 99.78877542 469.15798683 99.95326424 472.25447559 C101.72365873 475.00163946 103.01618267 476.78593481 105.95326424 478.25447559 C108.88977006 478.35925421 111.80291984 478.40226892 114.73996162 478.40164661 C115.66102548 478.4053233 116.58208933 478.40899999 117.53106421 478.41278809 C120.6364027 478.42385534 123.74170777 478.4276739 126.84706306 478.43147755 C129.06581924 478.43773984 131.28457436 478.44438643 133.50332832 478.45139027 C139.5446716 478.46882041 145.58600696 478.47935725 151.62736917 478.4875958 C155.39873407 478.49274107 159.1700965 478.49881697 162.94145966 478.50510693 C173.38053268 478.52197869 183.81960456 478.53661414 194.25868893 478.54385567 C196.96816001 478.5457656 199.67763108 478.54768593 202.38710213 478.54964161 C203.06053851 478.55012535 203.73397489 478.55060909 204.42781844 478.55110749 C215.33986259 478.55940984 226.25179718 478.58475006 237.16379348 478.61722229 C248.36343333 478.65027916 259.56301953 478.66797027 270.76271456 478.67149991 C277.05237143 478.67385495 283.34185515 478.6828746 289.63146591 478.70796108 C295.54692417 478.73117371 301.46209444 478.73550243 307.37758636 478.7251997 C309.55083738 478.72470259 311.72410225 478.73107432 313.89731026 478.74475574 C316.86042743 478.76236889 319.82249923 478.75542051 322.78561592 478.74222279 C324.08075472 478.75867665 324.08075472 478.75867665 325.40205795 478.77546293 C329.41321776 478.73222089 331.47096203 478.54935351 334.96764851 476.41149139 C337.49377527 473.66730718 337.87612256 471.95727601 337.95326424 468.25447559 C336.83307525 464.89390864 336.00792325 464.29091493 332.95326424 462.25447559 C329.92643826 462.0557612 326.99126207 461.97634154 323.96365547 461.98705006 C323.03286452 461.98251894 322.10207357 461.97798783 321.14307684 461.97331941 C318.01082708 461.96061589 314.87874987 461.96229961 311.74647713 461.96394825 C309.50624555 461.95796676 307.26601604 461.9511621 305.02578926 461.94359303 C298.93084042 461.92588834 292.83594769 461.9212358 286.74097562 461.91996145 C281.65869978 461.91806531 276.5764371 461.91071115 271.49416631 461.90361726 C260.19276474 461.88825071 248.89138975 461.88228087 237.58998091 461.88362797 C236.91169302 461.88370788 236.23340513 461.88378779 235.53456306 461.88387012 C234.85544864 461.88395189 234.17633422 461.88403365 233.47664057 461.88411789 C222.46698025 461.88493104 211.45745664 461.86578652 200.44783587 461.83759339 C189.14759067 461.80888396 177.84741018 461.79541851 166.54712099 461.79678094 C160.20107148 461.79729184 153.8551767 461.79153828 147.50915909 461.77042484 C141.54278969 461.75111713 135.57672379 461.75086678 129.61034393 461.76545811 C127.41732657 461.76755652 125.22429059 461.76278433 123.03130531 461.75073719 C120.04379449 461.73538491 117.05734335 461.74452649 114.06985664 461.75999928 C112.75969891 461.74456859 112.75969891 461.74456859 111.42307335 461.72882617 C106.5787429 461.78449854 103.90549347 461.99697168 100.95326424 466.25447559 Z " fill="#000000" transform="translate(37.046735763549805,7.7455244064331055)"/>
<path d="M0 0 C0.84587138 -0.00384115 1.69174276 -0.00768229 2.56324661 -0.01163983 C3.95743715 -0.01034011 3.95743715 -0.01034011 5.37979317 -0.00901413 C6.36704828 -0.01198525 7.3543034 -0.01495637 8.37147534 -0.01801753 C11.69482324 -0.02672104 15.01813519 -0.02821417 18.34149361 -0.02970505 C20.71803045 -0.034332 23.09456654 -0.03935649 25.47110176 -0.04475021 C31.93799443 -0.05788685 38.40488019 -0.06435802 44.87178373 -0.06876087 C48.90899188 -0.07152309 52.94619763 -0.07576037 56.98340416 -0.08026505 C68.15940068 -0.09245707 79.33539529 -0.10275689 90.51139832 -0.10614014 C91.22669707 -0.1063597 91.94199582 -0.10657927 92.67897028 -0.10680549 C93.75449401 -0.10713291 93.75449401 -0.10713291 94.85174549 -0.10746694 C96.3047084 -0.1079104 97.75767132 -0.10835697 99.21063423 -0.10880661 C100.29171531 -0.10913875 100.29171531 -0.10913875 101.39463641 -0.10947761 C113.07610997 -0.11342667 124.75752119 -0.13088427 136.43897067 -0.15416613 C148.42965386 -0.17787163 160.42030576 -0.1903416 172.41101277 -0.19150805 C179.14439357 -0.19242521 185.87769312 -0.19818769 192.61105156 -0.21632767 C198.94261858 -0.23276018 205.27403111 -0.2349873 211.6056118 -0.22618866 C213.93205109 -0.22541573 216.25849852 -0.22979443 218.58491707 -0.23964691 C221.75582346 -0.25229046 224.92617636 -0.24653082 228.09707832 -0.23606491 C229.02207724 -0.24412132 229.94707617 -0.25217772 230.90010536 -0.26047826 C236.97466133 -0.21344384 240.45367266 0.71968104 244.86541939 5.13142776 C245.11151505 7.31407738 245.11151505 7.31407738 245.10592842 10.07945633 C245.11005241 11.64861298 245.11005241 11.64861298 245.11425972 13.24946976 C245.10706917 14.40177078 245.09987862 15.55407181 245.09247017 16.74129105 C245.09276222 17.95102585 245.09305428 19.16076065 245.09335518 20.40715408 C245.09219848 23.72934063 245.08215066 27.05128028 245.06820726 30.3734231 C245.05572616 33.84344033 245.05453148 37.31346065 245.05215645 40.78349686 C245.04593395 47.35666564 245.02951277 53.92976809 245.00945747 60.50290763 C244.98712237 67.98526906 244.97611106 75.46763362 244.9660666 82.95002007 C244.94514717 98.34386108 244.9099563 113.73763588 244.86541939 129.13142776 C245.48287403 129.26751513 246.10032867 129.40360249 246.73649406 129.54381371 C247.54673656 129.72299276 248.35697906 129.90217182 249.19177437 130.08678055 C249.99485401 130.26411791 250.79793365 130.44145527 251.62534904 130.62416649 C255.8395813 131.57847439 259.97109788 132.78934539 264.11541939 134.00642776 C264.98682564 134.25006058 265.85823189 134.49369339 266.75604439 134.74470901 C271.54868987 136.15474038 275.27098904 137.47948653 278.86541939 141.13142776 C280.12280594 144.74641411 280.14873012 146.44244617 278.68963814 149.99080276 C276.7059347 153.40600098 274.52032759 155.77476274 271.67791939 158.50642776 C270.7768647 159.38041214 269.87581001 160.25439651 268.94745064 161.15486526 C268.26038033 161.80713089 267.57331001 162.45939651 266.86541939 163.13142776 C269.99065167 166.90309223 273.14359588 170.47726921 276.69745064 173.85017776 C277.35036079 174.47279495 278.00327095 175.09541214 278.67596626 175.73689651 C280.0209407 177.00970159 281.37531762 178.27263752 282.73846626 179.52595901 C285.9181018 182.58829992 287.66940887 184.50096094 289.00213814 188.78767776 C288.7432319 195.11978463 284.48542024 198.80089486 280.17401314 203.05330276 C279.6281002 203.59875748 279.08218727 204.14421219 278.51973152 204.70619583 C277.37146069 205.8514593 276.22077415 206.99430528 275.06781197 208.13484573 C273.29985586 209.8844595 271.54011886 211.64202998 269.78143501 213.40095901 C268.66276662 214.51471478 267.54364183 215.62801237 266.42401314 216.74080276 C265.89690239 217.26680069 265.36979164 217.79279861 264.82670784 218.33473587 C261.73688047 221.3843895 260.07279665 222.9382474 255.74041939 223.63142776 C250.07738971 222.90071426 247.79642089 220.09980805 243.86541939 216.13142776 C242.65908048 214.93671787 241.45198512 213.74277152 240.24432564 212.54939651 C236.76364187 209.09728257 233.30999887 205.61954828 229.86541939 202.13142776 C226.29178264 203.79423613 224.22198189 205.7111036 221.55291939 208.63142776 C217.71140972 212.54863221 215.36005401 214.60309751 209.86541939 215.13142776 C205.73511742 214.19272277 204.12805702 212.61175152 201.86541939 209.13142776 C200.79046822 206.33821487 200.79046822 206.33821487 199.82245064 203.15877151 C199.47118111 202.01215042 199.11991158 200.86552933 198.75799751 199.68416214 C198.40157173 198.4911348 198.04514595 197.29810745 197.67791939 196.06892776 C197.30989204 194.87203323 196.9418647 193.6751387 196.56268501 192.44197464 C193.86541939 183.54950522 193.86541939 183.54950522 193.86541939 180.13142776 C192.31709986 180.13695852 192.31709986 180.13695852 190.73750114 180.14260101 C165.64211221 180.23132908 140.54674357 180.2970974 115.451231 180.33867645 C103.31531137 180.3593173 91.17949525 180.38746705 79.04364204 180.43318558 C68.46822646 180.47300665 57.89288583 180.49884949 47.31739736 180.50778174 C41.71574392 180.51300449 36.11430493 180.52531156 30.51272011 180.55434799 C25.24324672 180.58144229 19.97407668 180.58988485 14.70454025 180.58385849 C12.76790978 180.58496141 10.83126945 180.59295077 8.8946991 180.60824966 C6.25514853 180.62808403 3.61675072 180.62339117 0.97717476 180.61244583 C0.20674552 180.6240972 -0.56368372 180.63574856 -1.35745931 180.647753 C-4.78818287 180.60916817 -6.7713029 180.39596509 -9.57906532 178.35136414 C-12.4939843 174.19136989 -12.26126056 170.49759015 -12.26829338 165.49594498 C-12.27055894 164.83043607 -12.27282449 164.16492717 -12.2751587 163.47925133 C-12.28148544 161.25074363 -12.2806702 159.02229696 -12.27984428 156.79378128 C-12.28283657 155.19541215 -12.28623926 153.59704375 -12.2900219 151.9986763 C-12.29885826 147.65780293 -12.30119984 143.31694927 -12.30183768 138.97606778 C-12.30278721 135.35272766 -12.30646595 131.72939213 -12.31000978 128.10605377 C-12.3181527 119.55843844 -12.32059413 111.01083364 -12.31988335 102.46321487 C-12.31928235 93.64385931 -12.32983894 84.82456486 -12.34562701 76.00522476 C-12.3586981 68.43400044 -12.36406744 60.86279611 -12.36342794 53.29156059 C-12.36317285 48.76926935 -12.36602981 44.24703244 -12.37660599 39.72475243 C-12.38627989 35.47221005 -12.38637102 31.21977404 -12.37908936 26.96722794 C-12.37804268 25.40675514 -12.3804113 23.84627575 -12.38644981 22.28581429 C-12.39416107 20.15504887 -12.38953092 18.02465161 -12.38181877 15.8938942 C-12.38236354 14.70168038 -12.38290831 13.50946657 -12.38346958 12.28112507 C-12.07273984 8.34883097 -11.21036242 5.44107518 -8.69708061 2.38142776 C-5.95908914 0.19103459 -3.36559474 0.00573673 0 0 Z M5.86541939 18.13142776 C5.86541939 26.38142776 5.86541939 34.63142776 5.86541939 43.13142776 C78.79541939 43.13142776 151.72541939 43.13142776 226.86541939 43.13142776 C226.86541939 34.88142776 226.86541939 26.63142776 226.86541939 18.13142776 C153.93541939 18.13142776 81.00541939 18.13142776 5.86541939 18.13142776 Z M5.86541939 61.13142776 C5.86541939 94.46142776 5.86541939 127.79142776 5.86541939 162.13142776 C65.92541939 162.13142776 125.98541939 162.13142776 187.86541939 162.13142776 C186.61999478 156.52701702 185.40545098 151.37538422 183.66620064 145.97127151 C183.25726278 144.67006991 182.84908182 143.36863022 182.44159126 142.06697464 C181.81026426 140.06142397 181.17432482 138.05785089 180.5253315 136.05794144 C175.9555526 121.92391052 175.9555526 121.92391052 177.86541939 115.13142776 C179.92791939 113.06892776 179.92791939 113.06892776 182.86541939 112.13142776 C188.43479549 112.5820627 193.45130653 113.72720022 198.75995064 115.41658401 C199.47398552 115.63712952 200.1880204 115.85767502 200.9236927 116.08490372 C203.17711856 116.78160846 205.42768167 117.48700002 207.67791939 118.19392776 C209.94626479 118.90352261 212.21516862 119.61110746 214.48570442 120.31366348 C215.89159779 120.74893716 217.29621541 121.18835851 218.69935799 121.63241959 C221.54401901 122.51535127 223.8661549 123.13142776 226.86541939 123.13142776 C226.86541939 102.67142776 226.86541939 82.21142776 226.86541939 61.13142776 C153.93541939 61.13142776 81.00541939 61.13142776 5.86541939 61.13142776 Z M198.86541939 134.13142776 C201.21606001 144.21004227 204.13967148 154.10639759 207.10882759 164.01668167 C207.93600581 166.7834757 208.75332243 169.55307138 209.57049751 172.32283401 C210.09659179 174.08473156 210.62326304 175.84645696 211.15057564 177.60799026 C211.39332726 178.43497421 211.63607887 179.26195816 211.8861866 180.11400223 C213.15203129 184.52493621 213.15203129 184.52493621 215.86541939 188.13142776 C216.32690376 187.62611526 216.78838814 187.12080276 217.26385689 186.60017776 C220.78483953 183.09311205 223.66468744 180.58117617 228.74041939 180.13142776 C235.57388818 180.66349938 239.36685023 185.41029071 243.86541939 190.13142776 C244.8867677 191.15046309 245.91161743 192.16599907 246.93963814 193.17830276 C249.60474686 195.80710555 252.2409603 198.46206349 254.86541939 201.13142776 C258.67177436 197.92382526 262.41105505 194.72396667 265.86541939 191.13142776 C264.4513512 187.90737015 262.7554431 185.795852 260.24041939 183.34627151 C259.53401314 182.6508223 258.82760689 181.95537308 258.09979439 181.23884964 C257.36245064 180.52277542 256.62510689 179.8067012 255.86541939 179.06892776 C254.4048495 177.64282937 252.94642172 176.21453293 251.49041939 174.78377151 C250.51975533 173.84005692 250.51975533 173.84005692 249.52948189 172.87727737 C245.9813704 169.15477954 245.2733614 166.51969486 245.33026314 161.56111526 C246.32008881 157.06716223 249.59461546 154.1936345 252.86541939 151.13142776 C250.57003021 148.83603859 249.16321679 148.44774707 246.08026314 147.52742386 C245.08583199 147.22726364 244.09140083 146.92710342 243.0668354 146.61784744 C241.98974312 146.30006332 240.91265083 145.98227921 239.80291939 145.65486526 C238.70069038 145.32475449 237.59846138 144.99464371 236.4628315 144.65452957 C234.13015562 143.95728207 231.79654896 143.26314217 229.46209908 142.57185745 C225.87824919 141.51022828 222.29742667 140.43885331 218.71698189 139.36580276 C216.45413262 138.69074823 214.19111725 138.01625017 211.92791939 137.34236526 C210.8508271 137.02053268 209.77373482 136.6987001 208.66400337 136.36711502 C207.66957222 136.07325912 206.67514107 135.77940323 205.65057564 135.47664261 C204.77280464 135.21620163 203.89503365 134.95576065 202.99066353 134.68742752 C200.90906757 134.04706151 200.90906757 134.04706151 198.86541939 134.13142776 Z " fill="#000000" transform="translate(122.13458061218262,75.86857223510742)"/>
<path d="M0 0 C0.6946637 -0.0049649 1.38932739 -0.00992981 2.1050415 -0.01504517 C4.40223177 -0.02964548 6.69935299 -0.03646503 8.99658203 -0.04199219 C10.59457399 -0.04774518 12.19256593 -0.05350289 13.79055786 -0.05926514 C17.14129966 -0.06976891 20.4920175 -0.07561572 23.84277344 -0.07910156 C28.13241169 -0.08458651 32.42173257 -0.10861699 36.71127129 -0.13707352 C40.01243002 -0.15571363 43.31351248 -0.16090621 46.61471939 -0.16243744 C48.19594178 -0.16546115 49.77716292 -0.17348023 51.35833359 -0.18662262 C53.57246691 -0.20371315 55.78582714 -0.20179603 58 -0.1953125 C59.25892059 -0.19895813 60.51784119 -0.20260376 61.81491089 -0.20635986 C65.39349807 0.19041524 67.2587396 1.03693104 70.12939453 3.16113281 C73.02906105 6.8277797 72.41703046 11.48478568 72.39501953 15.94238281 C72.39693298 16.79288208 72.39884644 17.64338135 72.40081787 18.51965332 C72.40217682 20.3150258 72.39850067 22.1104082 72.39013672 23.90576172 C72.379433 26.65126654 72.39004174 29.39611705 72.40283203 32.14160156 C72.40151038 33.88769675 72.39894789 35.63379154 72.39501953 37.37988281 C72.39906799 38.19976685 72.40311646 39.01965088 72.4072876 39.86437988 C72.3472397 47.17564315 72.3472397 47.17564315 70.12939453 50.16113281 C66.56201762 52.53938409 64.01131058 52.46357236 59.89160156 52.4675293 C58.79108459 52.48001457 58.79108459 52.48001457 57.66833496 52.49275208 C55.24123844 52.51686115 52.81441062 52.5256252 50.38720703 52.53222656 C48.69953327 52.54119228 47.01186034 52.55031412 45.32418823 52.55958557 C41.78511625 52.57608062 38.24613893 52.5837766 34.70703125 52.58666992 C30.17501437 52.59205405 25.64388869 52.62973233 21.11212349 52.67541409 C17.62564863 52.70517683 14.13938856 52.7123933 10.6527977 52.71339607 C8.98223667 52.71760004 7.31167509 52.73004156 5.64123917 52.75091362 C3.30215447 52.7778134 0.96513767 52.77300872 -1.37402344 52.76049805 C-2.06199005 52.77533234 -2.74995667 52.79016663 -3.45877075 52.80545044 C-7.19793889 52.74858576 -8.80817271 52.20941029 -11.79969788 49.89614868 C-13.87571184 47.15438891 -14.4972597 46.14604953 -14.50170898 42.80151367 C-14.52050865 41.56013893 -14.52050865 41.56013893 -14.53968811 40.29368591 C-14.5264299 39.41334183 -14.51317169 38.53299774 -14.49951172 37.62597656 C-14.50192368 36.71030411 -14.50433563 35.79463165 -14.50682068 34.85121155 C-14.50584346 32.92053891 -14.49247963 30.98983783 -14.4675293 29.05932617 C-14.4331756 26.10466434 -14.44688727 23.15298695 -14.46630859 20.19824219 C-14.45941111 18.31997426 -14.44973961 16.44171403 -14.43701172 14.56347656 C-14.44197159 13.68110825 -14.44693146 12.79873993 -14.45204163 11.88963318 C-14.33498454 5.79570445 -14.33498454 5.79570445 -12.02270508 2.63598633 C-8.05908497 -0.08031873 -4.68723402 0.02545431 0 0 Z M4.12939453 18.16113281 C4.12939453 23.44113281 4.12939453 28.72113281 4.12939453 34.16113281 C20.62939453 34.16113281 37.12939453 34.16113281 54.12939453 34.16113281 C54.12939453 28.88113281 54.12939453 23.60113281 54.12939453 18.16113281 C37.62939453 18.16113281 21.12939453 18.16113281 4.12939453 18.16113281 Z " fill="#000000" transform="translate(158.87060546875,169.8388671875)"/>
<path d="M0 0 C1.06460449 -0.00945648 2.12920898 -0.01891296 3.22607422 -0.02865601 C4.93561279 -0.01954697 4.93561279 -0.01954697 6.6796875 -0.01025391 C7.85934082 -0.01312408 9.03899414 -0.01599426 10.25439453 -0.01895142 C12.74577312 -0.02099076 15.23716776 -0.01547003 17.72851562 -0.00292969 C21.54072899 0.01312481 25.35188209 -0.00278383 29.1640625 -0.02197266 C31.58593984 -0.0199902 34.00781652 -0.01614649 36.4296875 -0.01025391 C37.56937988 -0.0163266 38.70907227 -0.02239929 39.88330078 -0.02865601 C40.94790527 -0.01919952 42.01250977 -0.00974304 43.109375 0 C44.04249512 0.00238678 44.97561523 0.00477356 45.93701172 0.00723267 C50.13495817 0.61816073 52.75824307 2.46328038 55.4921875 5.63818359 C56.99045534 9.5160533 56.09518887 11.60695297 54.5546875 15.38818359 C53.33030701 17.0738678 53.33030701 17.0738678 51.5546875 18.38818359 C48.94300842 18.77586365 48.94300842 18.77586365 45.76977539 18.79223633 C44.58166763 18.8049205 43.39355988 18.81760468 42.16944885 18.83067322 C40.88505417 18.82773758 39.60065948 18.82480194 38.27734375 18.82177734 C36.95931259 18.8270192 35.64128143 18.83226105 34.28330994 18.83766174 C31.49321935 18.8465963 28.70341492 18.84416644 25.91333008 18.83422852 C22.34080115 18.82274259 18.7692612 18.84294092 15.19686222 18.87214565 C11.78613696 18.89492426 8.37564329 18.88804046 4.96484375 18.88427734 C3.04128807 18.90112831 3.04128807 18.90112831 1.07887268 18.9183197 C-0.11238724 18.90893875 -1.30364716 18.8995578 -2.53100586 18.88989258 C-3.57896835 18.88972641 -4.62693085 18.88956024 -5.70664978 18.88938904 C-9.15022628 18.25917661 -10.30928671 17.11013198 -12.4453125 14.38818359 C-13.5736853 10.85261548 -13.76056186 9.14127928 -12.3203125 5.70068359 C-8.85865348 1.43130414 -5.42753909 0.01388282 0 0 Z " fill="#000000" transform="translate(234.4453125,348.61181640625)"/>
</svg>
