<?xml version="1.0" encoding="UTF-8"?>
<svg version="1.1" xmlns="http://www.w3.org/2000/svg" width="512" height="512">
<path d="M0 0 C1.29657028 -0.0071553 2.59314056 -0.01431061 3.92900085 -0.02168274 C5.37455726 -0.02452327 6.82011392 -0.02723496 8.26567078 -0.02983093 C9.78180091 -0.03609486 11.2979295 -0.0427416 12.8140564 -0.04974365 C17.80532253 -0.07081179 22.79658904 -0.08115518 27.78788757 -0.09111023 C29.50810957 -0.09515811 31.22833141 -0.09927504 32.94855309 -0.10346031 C41.03823403 -0.1225256 49.12790583 -0.13674839 57.21760494 -0.14507228 C66.53765607 -0.15482113 75.8574682 -0.18107318 85.17743522 -0.22157317 C92.38951062 -0.25182988 99.60151796 -0.26655056 106.81365556 -0.26985329 C111.11610553 -0.27219482 115.41830062 -0.28103596 119.72068214 -0.30631447 C123.77796714 -0.32976497 127.83483259 -0.33376107 131.89216805 -0.32355309 C133.37188877 -0.32306155 134.85163132 -0.32926767 136.33128738 -0.34310913 C154.54348811 -0.50377181 169.11740538 4.88042227 182.26054382 17.33076477 C184.23540991 19.41856309 185.64364471 21.12357397 187.15116882 23.49482727 C187.7364032 24.37010071 188.32163757 25.24537415 188.92460632 26.14717102 C189.58460632 26.14717102 190.24460632 26.14717102 190.92460632 26.14717102 C192.42542579 24.39440101 192.42542579 24.39440101 193.98710632 22.14717102 C203.19500536 10.07838154 215.04678094 3.08558384 229.92460632 0.14717102 C235.08214397 -0.27262378 240.22745851 -0.27448502 245.39848328 -0.25688171 C246.927302 -0.26259579 248.45611646 -0.26956404 249.98492432 -0.27767944 C254.10444156 -0.29550179 258.22374457 -0.29446444 262.34328866 -0.28873706 C265.79044075 -0.28563235 269.23755244 -0.29175114 272.68469876 -0.2977758 C280.81491422 -0.31178057 288.94502448 -0.31029078 297.07524109 -0.2988739 C305.45345277 -0.28736862 313.83134524 -0.30151784 322.20951492 -0.32827038 C329.41913549 -0.35042663 336.62865583 -0.35706576 343.83830804 -0.35119396 C348.13757661 -0.34782639 352.43664009 -0.35022745 356.7358799 -0.36744499 C360.77360508 -0.38291331 364.81085581 -0.37896027 368.84856224 -0.36013985 C370.32799057 -0.35645507 371.80745408 -0.35955928 373.28684998 -0.37002563 C375.30944261 -0.38324109 377.33215795 -0.36927652 379.35473633 -0.35403442 C380.48531621 -0.35382514 381.61589609 -0.35361586 382.78073597 -0.35340023 C387.47674389 0.39430444 390.62905074 2.67291811 393.73710632 6.20967102 C396.02942526 9.94977034 396.0423855 13.06020626 396.02226257 17.34638977 C396.01903992 18.55488586 396.01581726 19.76338196 396.01249695 21.00849915 C396.00411804 22.27113586 395.99573914 23.53377258 395.98710632 24.83467102 C395.9825946 26.1089093 395.97808289 27.38314758 395.97343445 28.69599915 C395.96163506 31.84643666 395.9451723 34.99678051 395.92460632 38.14717102 C396.87714294 38.12622375 397.82967957 38.10527649 398.81108093 38.08369446 C402.38367871 38.0106698 405.95621212 37.96514764 409.52934265 37.92744446 C411.06851843 37.90746981 412.6076197 37.88028005 414.14653015 37.84541321 C432.91212387 37.43124236 432.91212387 37.43124236 439.78569031 43.89814758 C443.95860249 48.36252382 446.16993675 52.79573728 446.18466854 58.98798847 C446.19173413 59.94049372 446.19879972 60.89299897 446.20607942 61.87436801 C446.20366434 62.91268478 446.20124925 63.95100155 446.19876099 65.02078247 C446.20399767 66.13013631 446.20923434 67.23949015 446.21462971 68.38246077 C446.2296556 72.1072084 446.23033544 75.83181897 446.23100281 79.55659485 C446.23862252 82.22412696 446.24700075 84.8916475 446.25622559 87.55917358 C446.2790612 94.8112489 446.28699451 102.06329492 446.29205203 109.31540132 C446.29531045 113.84479028 446.30183378 118.37417075 446.30905342 122.90355492 C446.32861678 135.44787351 446.34502277 147.99218422 446.34792995 160.53651905 C446.34811752 161.33902121 446.34830509 162.14152337 446.34849835 162.96834378 C446.34886459 164.59515583 446.34922829 166.22196789 446.34958946 167.84877995 C446.34977227 168.65631395 446.34995508 169.46384794 446.35014343 170.29585266 C446.35041426 171.5086345 446.35041426 171.5086345 446.35069055 172.74591698 C446.35423248 185.84791749 446.38125717 198.94975366 446.41864132 212.05169717 C446.45672917 225.50809057 446.47608746 238.96440243 446.47638947 252.42085093 C446.4769739 259.97427144 446.48545675 267.52749585 446.51438713 275.08086586 C446.53890738 281.51229147 446.54617967 287.94344947 446.5311396 294.3749092 C446.52397328 297.6550668 446.52754039 300.93458647 446.5475502 304.21470642 C446.56794205 307.77446927 446.55749724 311.3328637 446.53933716 314.89260864 C446.55253713 315.92423325 446.56573709 316.95585786 446.57933706 318.01874381 C446.48252093 326.32853704 443.92249358 331.08114996 438.17460632 336.95967102 C428.55414225 343.43498338 418.0928336 342.57093951 406.9839325 342.52812195 C405.03567079 342.53158034 403.08741105 342.53634612 401.13915539 342.54230368 C395.79526881 342.55481836 390.45154313 342.54864109 385.107656 342.53934503 C379.34070595 342.53255684 373.57378355 342.54303464 367.80683899 342.55128479 C356.51325099 342.56462674 345.21972279 342.5617423 333.92613244 342.55304687 C324.7478335 342.54627256 315.56955133 342.54535251 306.39125061 342.54861832 C305.08509802 342.54907802 303.77894543 342.54953771 302.43321246 342.55001134 C299.77981384 342.55097052 297.12641523 342.55194316 294.47301662 342.55292912 C270.2996936 342.56154172 246.12640082 342.55262031 221.95308296 342.53690133 C199.89181547 342.52266481 177.83059993 342.5239387 155.76933289 342.5382843 C130.97585524 342.55435272 106.18240673 342.56066038 81.3889246 342.55144751 C78.74527042 342.55049186 76.10161623 342.54954875 73.45796204 342.54861832 C71.50685391 342.54792408 71.50685391 342.54792408 69.51632947 342.54721581 C60.34873424 342.54462521 51.18115744 342.54899844 42.01356506 342.55605698 C30.84180604 342.5644695 19.67011026 342.56219698 8.49835849 342.54621474 C2.79804551 342.53832877 -2.90216201 342.53524611 -8.60247421 342.5451622 C-13.82085252 342.55410266 -19.03902764 342.54918674 -24.25738752 342.53322954 C-26.14488187 342.52987902 -28.03239339 342.53158189 -29.91987669 342.53885691 C-52.05929363 342.61764258 -52.05929363 342.61764258 -59.45039368 335.83467102 C-60.07687805 335.28166321 -60.70336243 334.7286554 -61.34883118 334.15888977 C-66.46352695 328.19945918 -66.5065599 322.64505402 -66.46307373 315.15330505 C-66.46845927 314.04309679 -66.47384481 312.93288852 -66.47939354 311.78903759 C-66.49370585 308.06731971 -66.48656107 304.34595587 -66.47944641 300.6242218 C-66.48514828 297.95653659 -66.49201115 295.28887684 -66.50024414 292.62120056 C-66.51743338 286.12618601 -66.51827185 279.63126819 -66.51303124 273.1362368 C-66.50898825 267.85611785 -66.51043463 262.57602747 -66.5157795 257.29590988 C-66.51652792 256.54413435 -66.51727634 255.79235881 -66.51804744 255.0178022 C-66.51957894 253.49051325 -66.52111728 251.9632243 -66.52266241 250.43593536 C-66.5363881 236.11550469 -66.53094946 221.79512867 -66.5194772 207.47469924 C-66.50954648 194.37924824 -66.52248252 181.28393856 -66.54641139 168.18850936 C-66.5708061 154.73659845 -66.58040924 141.28475336 -66.57375866 127.83282077 C-66.57026704 120.28280902 -66.57249463 112.73290593 -66.59000969 105.18291092 C-66.60473642 98.75518423 -66.60536116 92.32764272 -66.58793878 85.89991964 C-66.57942975 82.62187092 -66.57944698 79.34422073 -66.59259033 76.06617737 C-66.60576459 72.50880718 -66.59428275 68.95233572 -66.57659912 65.39500427 C-66.58620413 64.36406179 -66.59580913 63.3331193 -66.6057052 62.27093613 C-66.53184578 55.04843132 -65.07576077 49.69555037 -60.36445618 44.12373352 C-59.81531555 43.6777179 -59.26617493 43.23170227 -58.70039368 42.77217102 C-58.1564093 42.31068665 -57.61242493 41.84920227 -57.05195618 41.37373352 C-52.04380176 38.26590647 -47.02729532 37.8658466 -41.27070618 37.95185852 C-40.54672638 37.95468842 -39.82274658 37.95751831 -39.076828 37.96043396 C-36.78450878 37.97155015 -34.49259305 37.9966379 -32.20039368 38.02217102 C-30.63789935 38.03221193 -29.07539885 38.04133583 -27.51289368 38.04951477 C-23.7002403 38.07146129 -19.88788519 38.10593089 -16.07539368 38.14717102 C-16.09110413 37.36068176 -16.10681458 36.5741925 -16.1230011 35.76387024 C-16.18555283 32.18337764 -16.22444919 28.60300026 -16.26289368 25.02217102 C-16.2880304 23.78467102 -16.31316711 22.54717102 -16.33906555 21.27217102 C-16.34873352 20.0733429 -16.35840149 18.87451477 -16.36836243 17.63935852 C-16.38407288 16.53962708 -16.39978333 15.43989563 -16.41596985 14.30683899 C-15.88340246 9.365988 -14.18367531 6.14732761 -10.51289368 2.83467102 C-6.68857767 0.18706763 -4.64862821 0.01755444 0 0 Z M-0.07539368 16.14717102 C-0.07539368 103.59717102 -0.07539368 191.04717102 -0.07539368 281.14717102 C42.9743452 281.31753339 42.9743452 281.31753339 86.0242157 281.44502258 C94.39433289 281.49043274 94.39433289 281.49043274 98.32609558 281.51673889 C101.04312813 281.53125161 103.75948007 281.53960982 106.47648621 281.53871155 C135.3605563 281.53923615 160.54397464 285.76653933 181.92460632 307.14717102 C182.0159609 274.88298189 182.08669869 242.61882973 182.12886764 210.35454138 C182.13387015 206.54087019 182.13904747 202.72719925 182.14433289 198.91352844 C182.14590675 197.77473335 182.14590675 197.77473335 182.14751241 196.61293229 C182.16489254 184.33850765 182.19641696 172.06415835 182.23321751 159.78977833 C182.27069366 147.18443193 182.29285625 134.57912484 182.3009603 121.97372502 C182.30643428 114.2026397 182.32368991 106.43176738 182.35627219 98.66074767 C182.38002129 92.69043524 182.3824094 86.72030399 182.37703705 80.74993896 C182.37813371 78.30913677 182.38603965 75.86832619 182.40142822 73.42757225 C182.50946494 55.40153384 181.91550497 41.04621596 169.08085632 27.15107727 C161.57546346 19.99942219 152.14092853 16.01817414 141.82493591 16.0269165 C140.57673946 16.02553901 139.32854301 16.02416151 138.04252243 16.02274227 C136.65653715 16.02628887 135.27055209 16.02992676 133.88456726 16.03364563 C132.40225858 16.033952 130.91994976 16.03381841 129.43764114 16.03328037 C125.46816538 16.03305462 121.49871975 16.03885044 117.5292511 16.04589081 C113.80442713 16.05158578 110.0796105 16.05185393 106.3547821 16.05256653 C95.46138618 16.05781383 84.56799587 16.07177498 73.67460632 16.08467102 C37.16835632 16.11560852 37.16835632 16.11560852 -0.07539368 16.14717102 Z M206.49101257 31.94404602 C199.64411742 41.57409307 197.61439523 51.19760764 197.68409729 62.78999329 C197.68238844 63.83813454 197.68067959 64.88627579 197.67891896 65.96617889 C197.67563437 69.46538205 197.68661089 72.96439189 197.69755554 76.46357727 C197.69811988 78.97704056 197.69780266 81.49050418 197.69667053 84.00396729 C197.69621564 89.40866031 197.70187493 94.81329149 197.71314621 100.2179718 C197.72943172 108.03212447 197.73461233 115.84625381 197.73712219 123.66042161 C197.74149452 136.33977452 197.75479104 149.01910164 197.77372742 161.69844055 C197.79209821 174.01191581 197.80624884 186.32538404 197.81474304 198.63887024 C197.81526849 199.39845232 197.81579394 200.15803441 197.81633531 200.94063413 C197.81894547 204.75140718 197.82147286 208.56218028 197.82395911 212.37295341 C197.8446772 243.96437804 197.88003926 275.55577061 197.92460632 307.14717102 C198.39896622 306.73869934 198.87332611 306.33022766 199.36206055 305.90937805 C199.9876738 305.37167786 200.61328705 304.83397766 201.25785828 304.27998352 C202.18596062 303.481651 202.18596062 303.481651 203.1328125 302.66719055 C217.06310081 290.84980954 234.09310371 282.11202973 252.69532776 281.98895264 C254.38632347 281.97426941 254.38632347 281.97426941 256.11148071 281.95928955 C257.33355728 281.95353409 258.55563385 281.94777863 259.81474304 281.94184875 C261.11284409 281.93194916 262.41094513 281.92204956 263.74838257 281.91184998 C267.29541538 281.88490731 270.84246136 281.86384045 274.38953924 281.84384799 C278.10113238 281.8219225 281.81268545 281.79456603 285.52424622 281.76779175 C292.54701075 281.71795336 299.56979762 281.67298183 306.59260571 281.62976938 C314.59020075 281.58032116 322.58775556 281.52543125 330.58531165 281.47008979 C347.03170609 281.35640573 363.47813746 281.24953734 379.92460632 281.14717102 C379.93047256 280.30414429 379.93633881 279.46111755 379.94238281 278.59254456 C380.00029217 270.64688549 380.07235865 262.70150805 380.16032124 254.75612259 C380.20504445 250.67132287 380.24429608 246.58662333 380.27104187 242.50166321 C380.29705568 238.55925315 380.33744394 234.61722821 380.38779259 230.67505646 C380.40447442 229.17122438 380.41598052 227.66732566 380.42222023 226.163414 C380.43184744 224.05635224 380.45988756 221.95027863 380.49223328 219.84346008 C380.50888786 218.04476471 380.50888786 218.04476471 380.52587891 216.20973206 C380.95662745 212.90122194 381.60212844 211.49968334 383.92460632 209.14717102 C385.86210632 208.61592102 385.86210632 208.61592102 387.92460632 208.64717102 C388.94554382 208.63170227 388.94554382 208.63170227 389.98710632 208.61592102 C392.82734026 209.39469484 393.45164246 210.61829848 394.92460632 213.14717102 C395.30555725 216.36590576 395.30555725 216.36590576 395.31278992 220.22309875 C395.32067535 221.2799437 395.32067535 221.2799437 395.32872009 222.35813904 C395.34190224 224.68257448 395.33318786 227.00632259 395.32304382 229.33076477 C395.32506531 230.94974906 395.32797737 232.56873245 395.33174133 234.18771362 C395.33616244 237.57964249 395.32974147 240.9713342 395.3157196 244.36323547 C395.29864135 248.7055856 395.30846136 253.04737889 395.326437 257.38970852 C395.33729236 260.73293226 395.33382025 264.07602463 395.32605362 267.4192524 C395.32405574 269.01999541 395.3264964 270.62075044 395.33349228 272.22147942 C395.3411343 274.46192244 395.32946457 276.70147205 395.31278992 278.94184875 C395.31040314 280.21551804 395.30801636 281.48918732 395.30555725 282.80145264 C394.89778512 286.38272939 393.92207178 288.20368011 391.92460632 291.14717102 C391.92460632 291.80717102 391.92460632 292.46717102 391.92460632 293.14717102 C384.39996528 296.16531546 377.8990338 296.56803482 369.84013367 296.5160675 C367.86874801 296.52184947 365.89736235 296.5276341 363.92597699 296.53351891 C361.82236114 296.53698712 359.71887048 296.5331683 357.61526108 296.52729607 C353.20807838 296.5156253 348.80115469 296.52795031 344.39399719 296.54391479 C333.44510947 296.57996793 322.49622877 296.58634965 311.54728699 296.58381653 C303.03820557 296.58209789 294.52933874 296.5894456 286.02031672 296.62379509 C282.36400264 296.63772875 278.70804859 296.64382686 275.05172348 296.63075066 C251.31529798 296.54993813 231.31875467 297.56275356 213.15898132 314.86201477 C207.3385384 319.90575573 207.3385384 319.90575573 203.92460632 326.14717102 C232.65304178 326.24055066 261.38145453 326.31111904 290.1100111 326.35441971 C303.44873719 326.37505802 316.78735777 326.40320295 330.12602234 326.44892883 C341.74997577 326.48875762 353.37386099 326.5145946 364.99788076 326.523525 C371.15455875 326.52874642 377.31104156 326.54104525 383.46765709 326.57009125 C389.25996056 326.59719763 395.05198803 326.6056256 400.84434891 326.59960175 C402.97245215 326.60070411 405.10056442 326.6086862 407.2286129 326.62399292 C410.13052283 326.64384578 413.03138578 326.63912714 415.93331909 326.62818909 C416.77865446 326.63984045 417.62398982 326.65149182 418.49494141 326.66349626 C422.42186726 326.62338934 424.47648392 326.41311476 427.92406178 324.36710739 C430.92606575 321.03588549 431.04901324 318.02849284 431.05603409 313.65807533 C431.05987523 312.75857867 431.06371638 311.85908201 431.06767392 310.93232787 C431.06680744 309.94809824 431.06594096 308.96386861 431.06504822 307.94981384 C431.06801934 306.90115658 431.07099046 305.85249932 431.07405162 304.77206457 C431.0827456 301.24686417 431.08424745 297.7216977 431.08573914 294.19648743 C431.09036675 291.67364428 431.09539133 289.15080183 431.1007843 286.62796021 C431.11391425 279.76644252 431.12039085 272.90493603 431.12479496 266.04340792 C431.12755828 261.75910983 431.13179575 257.47481399 431.13629913 253.19051743 C431.14848987 241.32821354 431.15879014 229.46591147 431.16217422 217.60360146 C431.16239379 216.84457522 431.16261336 216.08554898 431.16283958 215.30352195 C431.16305785 214.54268548 431.16327613 213.781849 431.16350102 212.99795687 C431.16394449 211.45622357 431.16439105 209.91449026 431.1648407 208.37275696 C431.16506213 207.60800483 431.16528356 206.8432527 431.1655117 206.05532627 C431.16946082 193.66004233 431.18691917 181.26481714 431.21020022 168.86955591 C431.23391025 156.1431983 431.24637589 143.41687018 431.24754214 130.69049013 C431.24845901 123.54517502 431.2542143 116.3999365 431.27236176 109.25464249 C431.28936648 102.53565101 431.29101802 95.81682981 431.28222275 89.09781456 C431.2814502 86.62988966 431.28582353 84.16195707 431.295681 81.69405174 C431.3083364 78.32869144 431.30255826 74.96385175 431.292099 71.59849548 C431.3001554 70.6187273 431.30821181 69.63895911 431.31651235 68.62950099 C431.2784072 63.39808889 430.91643828 59.64658101 427.92460632 55.14717102 C425.00262943 53.68618257 422.42567157 54.03582201 419.16679382 54.04951477 C418.50374237 54.05092972 417.84069092 54.05234467 417.157547 54.05380249 C415.0381877 54.05940348 412.91893374 54.07195602 410.79960632 54.08467102 C409.36340993 54.0896859 407.92721189 54.09424883 406.49101257 54.0983429 C402.96884287 54.1093732 399.44673488 54.12663843 395.92460632 54.14717102 C395.92102379 55.14800075 395.92102379 55.14800075 395.91736889 56.16904926 C395.85826965 72.39328417 395.78275243 88.61735073 395.68889141 104.84142017 C395.64389837 112.68721996 395.6044919 120.532974 395.57817078 128.37886047 C395.55521899 135.21620036 395.52185282 142.0533959 395.47590476 148.89062136 C395.45193421 152.51193978 395.43323068 156.13311489 395.42699242 159.75451088 C395.41983865 163.79421556 395.38943752 167.83342051 395.35697937 171.8730011 C395.35841446 173.07781128 395.35984955 174.28262146 395.36132812 175.52394104 C395.34878998 176.62190506 395.33625183 177.71986908 395.32333374 178.85110474 C395.31872478 179.80700406 395.31411581 180.76290339 395.30936718 181.74776936 C394.85548838 184.57819643 394.1893103 185.4456588 391.92460632 187.14717102 C388.85285607 188.19803295 387.30677096 188.2600833 384.17460632 187.33467102 C381.92460632 186.14717102 381.92460632 186.14717102 380.92460632 184.14717102 C380.81810237 181.94296604 380.77789854 179.73547882 380.76638794 177.5287323 C380.76144996 176.84098665 380.75651199 176.15324101 380.75142437 175.44465458 C380.73600817 173.12918731 380.72767765 170.81374785 380.71928406 168.49824524 C380.70970877 166.84279636 380.6996989 165.18734995 380.68928528 163.53190613 C380.66219229 159.02805169 380.64120656 154.52418672 380.62128329 150.02029562 C380.59945079 145.31705387 380.57204874 140.61384474 380.54522705 135.91062927 C380.4952631 127.00005632 380.45033803 118.08946531 380.40720469 109.17885697 C380.35786391 99.03629765 380.30293409 88.89377105 380.2475251 78.75124335 C380.13364822 57.8832497 380.02682164 37.01522484 379.92460632 16.14717102 C360.81782559 16.05356379 341.71109165 15.9831117 322.60412884 15.93992233 C313.73162845 15.91933216 304.85927088 15.89127968 295.98686218 15.84541321 C288.25005948 15.80543652 280.51336025 15.77971246 272.77645713 15.77081704 C268.68305222 15.76562055 264.58994323 15.75348167 260.49663353 15.72425079 C256.63638133 15.69691001 252.77654429 15.68876325 248.91620445 15.6947403 C247.50658912 15.69364833 246.09695853 15.68580599 244.68742752 15.67034912 C229.34857998 15.51052836 216.45141292 19.83441776 206.49101257 31.94404602 Z M-50.07539368 58.14717102 C-51.00835607 60.9460582 -51.2014061 62.62438029 -51.20402813 65.51601219 C-51.20725258 66.41413451 -51.21047702 67.31225682 -51.21379918 68.23759496 C-51.21225058 69.22541955 -51.21070197 70.21324414 -51.20910645 71.23100281 C-51.211372 72.27951121 -51.21363756 73.32801961 -51.21597177 74.408301 C-51.22232673 77.9389445 -51.22148144 81.46954976 -51.22065735 85.00019836 C-51.2236479 87.5245163 -51.22705019 90.04883377 -51.23083496 92.57315063 C-51.23876898 98.72865238 -51.24189007 104.88414 -51.24244734 111.03964637 C-51.24292223 116.04239427 -51.24497561 121.045139 -51.24814796 126.04788589 C-51.25695623 140.22657954 -51.26156708 154.40526561 -51.26081749 168.58396201 C-51.26077753 169.34861004 -51.26073758 170.11325808 -51.26069641 170.90107727 C-51.26065553 171.66665721 -51.26061465 172.43223715 -51.26057253 173.22101648 C-51.26016603 185.6299585 -51.26973611 198.03887018 -51.28383478 210.44780342 C-51.2981916 223.18429447 -51.30510534 235.92077072 -51.304241 248.65727007 C-51.30390879 255.80981453 -51.30666654 262.96232718 -51.31741905 270.11486435 C-51.32746468 276.84038059 -51.32719579 283.56581842 -51.31990242 290.29134178 C-51.31885358 292.76290802 -51.32123711 295.2344784 -51.32726288 297.70603752 C-51.33494344 301.07389567 -51.33036403 304.4415191 -51.32263184 307.80937195 C-51.3277754 308.79273509 -51.33291896 309.77609824 -51.33821839 310.78926027 C-51.3036598 318.45820011 -51.3036598 318.45820011 -47.50483322 324.9371233 C-43.83666929 326.76415102 -40.21187025 326.54921932 -36.20436096 326.50793457 C-35.29847819 326.51049784 -34.39259542 326.51306112 -33.45926166 326.51570207 C-30.41738883 326.5206518 -27.37601 326.50412727 -24.33418274 326.48774719 C-22.15628064 326.48690118 -19.97837768 326.48737556 -17.80047607 326.48907471 C-11.8814056 326.48993708 -5.9625167 326.47227199 -0.0434885 326.45135283 C6.13981651 326.43262647 12.32312547 326.43083878 18.50645447 326.42727661 C30.21842189 326.41794427 41.93030551 326.39331435 53.64223599 326.36322814 C66.97459123 326.32948084 80.3069468 326.31320744 93.63933516 326.29814184 C121.06780537 326.26676587 148.49620116 326.21398222 175.92460632 326.14717102 C167.19922998 311.17843523 152.37228873 302.48582942 135.92460632 298.14717102 C132.32050495 297.31385002 128.9938369 297.01886374 125.29673767 297.00914001 C124.17537415 297.00368668 123.05401062 296.99823334 121.89866638 296.99261475 C120.6777832 296.99157242 119.45690002 296.99053009 118.19902039 296.98945618 C116.21380197 296.98165697 114.22858356 296.97385371 112.24336576 296.96589828 C110.11384176 296.95819707 107.984322 296.95280724 105.85478973 296.94794083 C101.40762423 296.9372274 96.96053389 296.91697314 92.51341248 296.89482117 C79.86893668 296.83301093 67.22446569 296.77892963 54.57987976 296.74580383 C47.59266903 296.72741908 40.60558478 296.69843584 33.61846709 296.65779912 C29.92548078 296.63679529 26.23265336 296.62128129 22.53960419 296.61899185 C18.41548308 296.61643204 14.29180247 296.59090506 10.16777039 296.56367493 C8.95498413 296.56668106 7.74219788 296.56968719 6.49266052 296.57278442 C0.02818209 296.50947199 -6.26360545 296.28919377 -12.07539368 293.14717102 C-13.57539368 290.58467102 -13.57539368 290.58467102 -14.07539368 288.14717102 C-14.40539368 287.48717102 -14.73539368 286.82717102 -15.07539368 286.14717102 C-15.18373961 283.12387683 -15.23031422 280.12300083 -15.23361206 277.0990448 C-15.24101903 275.6754053 -15.24101903 275.6754053 -15.24857563 274.22300541 C-15.26400933 271.0230872 -15.2723271 267.82318913 -15.28071594 264.62324524 C-15.29028985 262.33726319 -15.30029964 260.05128293 -15.31071472 257.76530457 C-15.33782262 251.54249236 -15.35880025 245.31967253 -15.37871671 239.09683371 C-15.40054005 232.59985548 -15.42794656 226.10290092 -15.45477295 219.60594177 C-15.49906471 208.69570429 -15.53989158 197.78545885 -15.57807922 186.87519836 C-15.61742676 175.63625643 -15.65885119 164.39732532 -15.70307922 153.15840149 C-15.7058035 152.46594396 -15.70852777 151.77348644 -15.71133459 151.06004535 C-15.72501395 147.58628195 -15.73873425 144.11251872 -15.7524749 140.63875556 C-15.86646252 111.80825016 -15.97319326 82.97772052 -16.07539368 54.14717102 C-20.27454675 54.04809844 -24.4730762 53.97560929 -28.67304993 53.92744446 C-30.10090489 53.9073612 -31.52867792 53.8800885 -32.95625305 53.84541321 C-35.01179736 53.79674433 -37.06625223 53.77417135 -39.12226868 53.75654602 C-40.35815735 53.73559875 -41.59404602 53.71465149 -42.86738586 53.69306946 C-46.67467494 54.23200079 -47.79299719 55.11447263 -50.07539368 58.14717102 Z " fill="#000000" transform="translate(66.07539367675781,129.8528289794922)"/>
<path d="M0 0 C1.48613873 -0.00433246 2.97227241 -0.01085159 4.4583931 -0.01936007 C8.52965639 -0.03632095 12.60030288 -0.02219206 16.67153358 -0.00284529 C21.06697561 0.01260004 25.46234295 -0.00082489 29.85778809 -0.0105896 C38.4634889 -0.02510948 47.06895363 -0.01288886 55.67463207 0.00852364 C65.69770037 0.03254652 75.72071472 0.03081847 85.74380541 0.02821773 C103.62840625 0.02452817 121.51289594 0.04534773 139.39746094 0.07946777 C156.74905202 0.11255869 174.10052644 0.12672597 191.45214844 0.1204834 C210.34998283 0.11371798 229.24776837 0.11618395 248.14559555 0.1358428 C249.14509759 0.13688229 250.14459962 0.13792177 251.1743896 0.13899276 C253.18179411 0.14108364 255.18919859 0.14319461 257.19660306 0.14532593 C264.18205753 0.15221892 271.16749694 0.15289127 278.1529541 0.15144348 C286.6666863 0.15000314 295.18032342 0.15970627 303.69402409 0.18338984 C308.03728127 0.19524241 312.38040601 0.2023799 316.72367859 0.19655228 C320.70106277 0.1913733 324.67816737 0.20009381 328.65550375 0.21982688 C330.09280562 0.22455907 331.53013478 0.22427631 332.9674325 0.21841651 C349.0967573 0.15902205 349.0967573 0.15902205 356.23730469 5.87145996 C360.67118242 11.44547768 361.8049298 16.23528739 361.82324219 23.27770996 C361.82611237 23.9836731 361.82898254 24.68963623 361.8319397 25.41699219 C361.83396773 26.89938161 361.82852673 28.38179856 361.81591797 29.86413574 C361.79984444 32.1158915 361.81580798 34.36585288 361.83496094 36.61755371 C361.83297828 38.06677637 361.82913413 39.51599792 361.82324219 40.96520996 C361.8198584 42.26651855 361.81647461 43.56782715 361.81298828 44.90856934 C361.11749932 51.56076816 358.68058408 56.32127682 353.42480469 60.62145996 C347.63028334 63.69963714 342.87974632 64.04760837 336.38471985 63.99568176 C335.38925791 63.99965617 334.39379598 64.00363057 333.36816853 64.00772542 C330.0409536 64.01733058 326.71416573 64.0055409 323.38696289 63.99377441 C320.99836061 63.99620291 318.60975935 63.99992279 316.22116089 64.00483704 C310.41274411 64.01326415 304.60446406 64.00774038 298.79605643 63.99557409 C292.03115689 63.9819334 285.2662868 63.98359369 278.50137701 63.98570742 C266.43277723 63.9888947 254.36423655 63.9772432 242.2956543 63.9576416 C230.5846985 63.93862586 218.87381193 63.93155768 207.1628418 63.93713379 C194.40570836 63.94319006 181.64860533 63.94301827 168.89147443 63.93164796 C167.53164017 63.93044067 166.17180592 63.92923469 164.81197166 63.92803001 C164.14292063 63.92742648 163.4738696 63.92682294 162.78454429 63.92620111 C158.06848514 63.92232095 153.35243731 63.92271591 148.63637733 63.92461586 C142.29245926 63.92649579 135.94863028 63.9184176 129.60473251 63.90255547 C127.27304007 63.89830372 124.9413386 63.89746801 122.60964394 63.90024567 C119.43431019 63.90345519 116.25924475 63.89441667 113.0839386 63.88215637 C112.15486437 63.8859357 111.22579013 63.88971502 110.26856214 63.89360887 C108.9933935 63.88486058 108.9933935 63.88486058 107.69246387 63.87593555 C106.95960094 63.87506878 106.22673801 63.874202 105.47166711 63.87330896 C103.07973074 63.57900155 101.48391858 62.85736216 99.42480469 61.62145996 C97.34321449 58.9451297 97.42892878 57.50392329 97.54980469 54.05895996 C98.42480469 50.62145996 98.42480469 50.62145996 99.9796257 48.92916393 C103.41492178 47.09193633 106.62362257 47.21694317 110.42266846 47.26069641 C111.23462952 47.25813314 112.04659059 47.25556986 112.88315654 47.25292891 C115.60720143 47.2479827 118.33069357 47.26449763 121.0546875 47.28088379 C123.00599148 47.28172988 124.95729643 47.28125527 126.90859985 47.27955627 C132.20993019 47.2786942 137.51105763 47.2963544 142.81234074 47.31727815 C148.35101866 47.33600953 153.88970105 47.33779259 159.42840576 47.34135437 C169.91852701 47.35068524 180.40855467 47.37531315 190.89863467 47.40540284 C202.84044594 47.43891441 214.78226164 47.4554247 226.72410822 47.47048914 C251.29106073 47.50186177 275.85792352 47.55524559 300.42480469 47.62145996 C300.42480469 37.39145996 300.42480469 27.16145996 300.42480469 16.62145996 C201.75480469 16.62145996 103.08480469 16.62145996 1.42480469 16.62145996 C2.41480469 19.92145996 3.40480469 23.22145996 4.42480469 26.62145996 C4.78808594 29.68786621 4.78808594 29.68786621 4.73730469 32.18395996 C4.7334375 33.01024902 4.72957031 33.83653809 4.72558594 34.68786621 C4.4562371 37.31489185 3.99026962 39.734427 3.40600586 42.30480957 C3.22309494 43.11365097 3.04018402 43.92249237 2.85173035 44.75584412 C2.71084488 45.37149734 2.56995941 45.98715057 2.42480469 46.62145996 C3.31794373 46.62510559 4.21108276 46.62875122 5.13128662 46.63250732 C13.547898 46.67037238 21.9641213 46.72720801 30.38045883 46.8053627 C34.70743071 46.84487385 39.03419798 46.8770443 43.36132812 46.89245605 C47.53722001 46.90759896 51.71254953 46.94200158 55.88819122 46.98976898 C57.4813371 47.00460737 59.07456326 47.01250239 60.66777802 47.01334381 C62.89957142 47.01570799 65.12980365 47.04273934 67.36132812 47.07556152 C68.63151794 47.08444397 69.90170776 47.09332642 71.21038818 47.10247803 C74.96694424 47.70899082 76.14778632 48.63452456 78.42480469 51.62145996 C78.99121094 53.62145996 78.99121094 53.62145996 78.98730469 55.62145996 C79.00921875 56.28145996 79.03113281 56.94145996 79.05371094 57.62145996 C78.04203433 60.83871726 76.23589812 61.82803452 73.42480469 63.62145996 C70.44812692 64.02905455 67.83763629 64.20928339 64.86181641 64.20251465 C63.58512337 64.22266632 63.58512337 64.22266632 62.28263855 64.2432251 C59.47301762 64.28116966 56.66435332 64.2890333 53.85449219 64.29333496 C51.89258436 64.30619654 49.93068036 64.31965368 47.96878052 64.3336792 C43.85474772 64.35762389 39.74105068 64.36504148 35.62695312 64.3626709 C30.37762656 64.36226551 25.13047784 64.41675923 19.88166618 64.48575974 C15.82699893 64.53044665 11.77284856 64.53834143 7.71796036 64.53623199 C5.7843796 64.54092588 3.85078262 64.55847086 1.91744614 64.58956146 C-9.95091557 64.76248058 -17.62303064 64.27727984 -26.57519531 55.62145996 C-27.88210879 54.61168856 -29.19984907 53.61546785 -30.53613281 52.64489746 C-31.67564758 51.76401414 -32.81372343 50.88126558 -33.95019531 49.99645996 C-34.52640625 49.55817871 -35.10261719 49.11989746 -35.69628906 48.66833496 C-40.31740907 45.06828247 -44.676494 41.3175639 -46.57519531 35.62145996 C-46.97385358 30.33923789 -46.52877391 27.05182785 -43.57519531 22.62145996 C-41.09246062 20.04960146 -38.37191841 17.84315588 -35.57519531 15.62145996 C-35.07600586 15.22346191 -34.57681641 14.82546387 -34.0625 14.41540527 C-27.36218392 9.09634785 -27.36218392 9.09634785 -24.25593185 6.84678507 C-23.14690631 6.03826046 -22.06351996 5.19318766 -21.01106644 4.31228399 C-14.54838026 -0.54743647 -7.77884867 -0.07343248 0 0 Z M316.42480469 16.62145996 C316.42480469 26.85145996 316.42480469 37.08145996 316.42480469 47.62145996 C323.32386719 47.65239746 323.32386719 47.65239746 330.36230469 47.68395996 C332.54134399 47.69761597 332.54134399 47.69761597 334.7644043 47.71154785 C335.89885986 47.71404541 337.03331543 47.71654297 338.20214844 47.71911621 C339.3699585 47.72435303 340.53776855 47.72958984 341.7409668 47.73498535 C344.3437202 47.92807491 344.3437202 47.92807491 345.42480469 46.62145996 C345.67896019 41.98130671 345.61003266 37.3302469 345.61230469 32.68395996 C345.62455078 31.36976074 345.63679688 30.05556152 345.64941406 28.70153809 C345.65134766 27.44921387 345.65328125 26.19688965 345.65527344 24.90661621 C345.65938232 23.75040771 345.66349121 22.59419922 345.66772461 21.4029541 C345.71284098 18.48089296 345.71284098 18.48089296 343.42480469 16.62145996 C340.6076899 16.34284599 340.6076899 16.34284599 337.32324219 16.42614746 C336.23188965 16.43114258 335.14053711 16.4361377 334.01611328 16.44128418 C331.92904053 16.46859619 331.92904053 16.46859619 329.79980469 16.49645996 C325.38605469 16.53770996 320.97230469 16.57895996 316.42480469 16.62145996 Z M-21.51269531 25.49645996 C-22.06376953 25.95665527 -22.61484375 26.41685059 -23.18261719 26.89099121 C-25.38783932 28.73984087 -27.5393759 30.58564055 -29.57519531 32.62145996 C-24.95519531 36.25145996 -20.33519531 39.88145996 -15.57519531 43.62145996 C-11.7077854 39.75405005 -11.72515859 37.60847332 -11.32519531 32.30895996 C-11.62744725 27.85074391 -12.84678555 24.72643316 -14.57519531 20.62145996 C-16.97094317 20.62145996 -19.66748365 23.9405672 -21.51269531 25.49645996 Z " fill="#000000" transform="translate(98.5751953125,39.3785400390625)"/>
<path d="M0 0 C1.2411557 -0.00700928 2.4823114 -0.01401855 3.76107788 -0.02124023 C7.15804713 -0.03581579 10.55404017 -0.03241883 13.95095444 -0.01972389 C17.50938966 -0.00958116 21.0677838 -0.01899309 24.6262207 -0.02526855 C30.60147573 -0.03254129 36.57653285 -0.02296723 42.55175781 -0.00390625 C49.45528047 0.017862 56.35833057 0.01081034 63.26184177 -0.01121187 C69.19407216 -0.02937668 75.12616047 -0.03191898 81.05840969 -0.0214572 C84.59929078 -0.01522812 88.13994991 -0.01437023 91.68081665 -0.02760315 C95.62854311 -0.04132662 99.57574226 -0.02229413 103.5234375 0 C105.28003189 -0.01214539 105.28003189 -0.01214539 107.07211304 -0.02453613 C114.98512204 0.05836213 114.98512204 0.05836213 118.98730469 2.42492676 C120.90403334 4.68541652 121.42134454 5.59237799 121.32421875 8.51757812 C121.32550781 9.17757813 121.32679688 9.83757812 121.328125 10.51757812 C120.50836388 13.41218292 119.0614313 14.61226124 116.76171875 16.51757812 C114.2504425 17.02094269 114.2504425 17.02094269 111.37231445 17.0255127 C110.27875641 17.03679199 109.18519836 17.04807129 108.0585022 17.05969238 C106.86357147 17.05159546 105.66864075 17.04349854 104.4375 17.03515625 C103.17537689 17.04216553 101.91325378 17.0491748 100.61288452 17.05639648 C97.15412904 17.07462536 93.69585103 17.06756455 90.23708725 17.05488014 C86.61678535 17.04475002 82.99652421 17.05414584 79.3762207 17.0604248 C73.2966376 17.06770121 67.2172489 17.05811384 61.13769531 17.0390625 C54.10977634 17.01729356 47.08232152 17.02434495 40.0544138 17.04636812 C34.01946064 17.06452246 27.9846472 17.06708035 21.94967556 17.05661345 C18.34565561 17.05037862 14.74185381 17.04954234 11.1378479 17.0627594 C7.12026498 17.07646411 3.10348171 17.05746793 -0.9140625 17.03515625 C-2.10899323 17.04325317 -3.30392395 17.0513501 -4.5350647 17.05969238 C-5.62862274 17.04841309 -6.72218079 17.03713379 -7.84887695 17.0255127 C-9.27355034 17.02325054 -9.27355034 17.02325054 -10.727005 17.02094269 C-13.979378 16.36903141 -15.17667301 15.05823799 -17.23828125 12.51757812 C-17.8046875 10.51757812 -17.8046875 10.51757812 -17.80078125 8.51757812 C-17.82269531 7.85757812 -17.84460938 7.19757813 -17.8671875 6.51757812 C-15.39610907 -1.34075825 -6.6055862 -0.04567212 0 0 Z " fill="#000000" transform="translate(303.23828125,362.482421875)"/>
<path d="M0 0 C1.2411557 -0.00700928 2.4823114 -0.01401855 3.76107788 -0.02124023 C7.15804713 -0.03581579 10.55404017 -0.03241883 13.95095444 -0.01972389 C17.50938966 -0.00958116 21.0677838 -0.01899309 24.6262207 -0.02526855 C30.60147573 -0.03254129 36.57653285 -0.02296723 42.55175781 -0.00390625 C49.45528047 0.017862 56.35833057 0.01081034 63.26184177 -0.01121187 C69.19407216 -0.02937668 75.12616047 -0.03191898 81.05840969 -0.0214572 C84.59929078 -0.01522812 88.13994991 -0.01437023 91.68081665 -0.02760315 C95.62854311 -0.04132662 99.57574226 -0.02229413 103.5234375 0 C105.28003189 -0.01214539 105.28003189 -0.01214539 107.07211304 -0.02453613 C114.98512204 0.05836213 114.98512204 0.05836213 118.98730469 2.42492676 C120.90403334 4.68541652 121.42134454 5.59237799 121.32421875 8.51757812 C121.32550781 9.17757813 121.32679688 9.83757812 121.328125 10.51757812 C120.50836388 13.41218292 119.0614313 14.61226124 116.76171875 16.51757812 C114.2504425 17.02094269 114.2504425 17.02094269 111.37231445 17.0255127 C110.27875641 17.03679199 109.18519836 17.04807129 108.0585022 17.05969238 C106.86357147 17.05159546 105.66864075 17.04349854 104.4375 17.03515625 C103.17537689 17.04216553 101.91325378 17.0491748 100.61288452 17.05639648 C97.15412904 17.07462536 93.69585103 17.06756455 90.23708725 17.05488014 C86.61678535 17.04475002 82.99652421 17.05414584 79.3762207 17.0604248 C73.2966376 17.06770121 67.2172489 17.05811384 61.13769531 17.0390625 C54.10977634 17.01729356 47.08232152 17.02434495 40.0544138 17.04636812 C34.01946064 17.06452246 27.9846472 17.06708035 21.94967556 17.05661345 C18.34565561 17.05037862 14.74185381 17.04954234 11.1378479 17.0627594 C7.12026498 17.07646411 3.10348171 17.05746793 -0.9140625 17.03515625 C-2.10899323 17.04325317 -3.30392395 17.0513501 -4.5350647 17.05969238 C-5.62862274 17.04841309 -6.72218079 17.03713379 -7.84887695 17.0255127 C-9.27355034 17.02325054 -9.27355034 17.02325054 -10.727005 17.02094269 C-13.979378 16.36903141 -15.17667301 15.05823799 -17.23828125 12.51757812 C-17.8046875 10.51757812 -17.8046875 10.51757812 -17.80078125 8.51757812 C-17.82269531 7.85757812 -17.84460938 7.19757813 -17.8671875 6.51757812 C-15.39610907 -1.34075825 -6.6055862 -0.04567212 0 0 Z " fill="#000000" transform="translate(105.23828125,362.482421875)"/>
<path d="M0 0 C1.2411557 -0.00700928 2.4823114 -0.01401855 3.76107788 -0.02124023 C7.15804713 -0.03581579 10.55404017 -0.03241883 13.95095444 -0.01972389 C17.50938966 -0.00958116 21.0677838 -0.01899309 24.6262207 -0.02526855 C30.60147573 -0.03254129 36.57653285 -0.02296723 42.55175781 -0.00390625 C49.45528047 0.017862 56.35833057 0.01081034 63.26184177 -0.01121187 C69.19407216 -0.02937668 75.12616047 -0.03191898 81.05840969 -0.0214572 C84.59929078 -0.01522812 88.13994991 -0.01437023 91.68081665 -0.02760315 C95.62854311 -0.04132662 99.57574226 -0.02229413 103.5234375 0 C105.28003189 -0.01214539 105.28003189 -0.01214539 107.07211304 -0.02453613 C114.98512204 0.05836213 114.98512204 0.05836213 118.98730469 2.42492676 C120.90403334 4.68541652 121.42134454 5.59237799 121.32421875 8.51757812 C121.32550781 9.17757813 121.32679688 9.83757812 121.328125 10.51757812 C120.50836388 13.41218292 119.0614313 14.61226124 116.76171875 16.51757812 C114.2504425 17.02094269 114.2504425 17.02094269 111.37231445 17.0255127 C110.27875641 17.03679199 109.18519836 17.04807129 108.0585022 17.05969238 C106.86357147 17.05159546 105.66864075 17.04349854 104.4375 17.03515625 C103.17537689 17.04216553 101.91325378 17.0491748 100.61288452 17.05639648 C97.15412904 17.07462536 93.69585103 17.06756455 90.23708725 17.05488014 C86.61678535 17.04475002 82.99652421 17.05414584 79.3762207 17.0604248 C73.2966376 17.06770121 67.2172489 17.05811384 61.13769531 17.0390625 C54.10977634 17.01729356 47.08232152 17.02434495 40.0544138 17.04636812 C34.01946064 17.06452246 27.9846472 17.06708035 21.94967556 17.05661345 C18.34565561 17.05037862 14.74185381 17.04954234 11.1378479 17.0627594 C7.12026498 17.07646411 3.10348171 17.05746793 -0.9140625 17.03515625 C-2.10899323 17.04325317 -3.30392395 17.0513501 -4.5350647 17.05969238 C-5.62862274 17.04841309 -6.72218079 17.03713379 -7.84887695 17.0255127 C-9.27355034 17.02325054 -9.27355034 17.02325054 -10.727005 17.02094269 C-13.979378 16.36903141 -15.17667301 15.05823799 -17.23828125 12.51757812 C-17.8046875 10.51757812 -17.8046875 10.51757812 -17.80078125 8.51757812 C-17.82269531 7.85757812 -17.84460938 7.19757813 -17.8671875 6.51757812 C-15.39610907 -1.34075825 -6.6055862 -0.04567212 0 0 Z " fill="#000000" transform="translate(303.23828125,317.482421875)"/>
<path d="M0 0 C1.2411557 -0.00700928 2.4823114 -0.01401855 3.76107788 -0.02124023 C7.15804713 -0.03581579 10.55404017 -0.03241883 13.95095444 -0.01972389 C17.50938966 -0.00958116 21.0677838 -0.01899309 24.6262207 -0.02526855 C30.60147573 -0.03254129 36.57653285 -0.02296723 42.55175781 -0.00390625 C49.45528047 0.017862 56.35833057 0.01081034 63.26184177 -0.01121187 C69.19407216 -0.02937668 75.12616047 -0.03191898 81.05840969 -0.0214572 C84.59929078 -0.01522812 88.13994991 -0.01437023 91.68081665 -0.02760315 C95.62854311 -0.04132662 99.57574226 -0.02229413 103.5234375 0 C105.28003189 -0.01214539 105.28003189 -0.01214539 107.07211304 -0.02453613 C114.98512204 0.05836213 114.98512204 0.05836213 118.98730469 2.42492676 C120.90403334 4.68541652 121.42134454 5.59237799 121.32421875 8.51757812 C121.32550781 9.17757813 121.32679688 9.83757812 121.328125 10.51757812 C120.50836388 13.41218292 119.0614313 14.61226124 116.76171875 16.51757812 C114.2504425 17.02094269 114.2504425 17.02094269 111.37231445 17.0255127 C110.27875641 17.03679199 109.18519836 17.04807129 108.0585022 17.05969238 C106.86357147 17.05159546 105.66864075 17.04349854 104.4375 17.03515625 C103.17537689 17.04216553 101.91325378 17.0491748 100.61288452 17.05639648 C97.15412904 17.07462536 93.69585103 17.06756455 90.23708725 17.05488014 C86.61678535 17.04475002 82.99652421 17.05414584 79.3762207 17.0604248 C73.2966376 17.06770121 67.2172489 17.05811384 61.13769531 17.0390625 C54.10977634 17.01729356 47.08232152 17.02434495 40.0544138 17.04636812 C34.01946064 17.06452246 27.9846472 17.06708035 21.94967556 17.05661345 C18.34565561 17.05037862 14.74185381 17.04954234 11.1378479 17.0627594 C7.12026498 17.07646411 3.10348171 17.05746793 -0.9140625 17.03515625 C-2.10899323 17.04325317 -3.30392395 17.0513501 -4.5350647 17.05969238 C-5.62862274 17.04841309 -6.72218079 17.03713379 -7.84887695 17.0255127 C-9.27355034 17.02325054 -9.27355034 17.02325054 -10.727005 17.02094269 C-13.979378 16.36903141 -15.17667301 15.05823799 -17.23828125 12.51757812 C-17.8046875 10.51757812 -17.8046875 10.51757812 -17.80078125 8.51757812 C-17.82269531 7.85757812 -17.84460938 7.19757813 -17.8671875 6.51757812 C-15.39610907 -1.34075825 -6.6055862 -0.04567212 0 0 Z " fill="#000000" transform="translate(105.23828125,317.482421875)"/>
<path d="M0 0 C1.2411557 -0.00700928 2.4823114 -0.01401855 3.76107788 -0.02124023 C7.15804713 -0.03581579 10.55404017 -0.03241883 13.95095444 -0.01972389 C17.50938966 -0.00958116 21.0677838 -0.01899309 24.6262207 -0.02526855 C30.60147573 -0.03254129 36.57653285 -0.02296723 42.55175781 -0.00390625 C49.45528047 0.017862 56.35833057 0.01081034 63.26184177 -0.01121187 C69.19407216 -0.02937668 75.12616047 -0.03191898 81.05840969 -0.0214572 C84.59929078 -0.01522812 88.13994991 -0.01437023 91.68081665 -0.02760315 C95.62854311 -0.04132662 99.57574226 -0.02229413 103.5234375 0 C105.28003189 -0.01214539 105.28003189 -0.01214539 107.07211304 -0.02453613 C114.98512204 0.05836213 114.98512204 0.05836213 118.98730469 2.42492676 C120.90403334 4.68541652 121.42134454 5.59237799 121.32421875 8.51757812 C121.32550781 9.17757813 121.32679688 9.83757812 121.328125 10.51757812 C120.50836388 13.41218292 119.0614313 14.61226124 116.76171875 16.51757812 C114.2504425 17.02094269 114.2504425 17.02094269 111.37231445 17.0255127 C110.27875641 17.03679199 109.18519836 17.04807129 108.0585022 17.05969238 C106.86357147 17.05159546 105.66864075 17.04349854 104.4375 17.03515625 C103.17537689 17.04216553 101.91325378 17.0491748 100.61288452 17.05639648 C97.15412904 17.07462536 93.69585103 17.06756455 90.23708725 17.05488014 C86.61678535 17.04475002 82.99652421 17.05414584 79.3762207 17.0604248 C73.2966376 17.06770121 67.2172489 17.05811384 61.13769531 17.0390625 C54.10977634 17.01729356 47.08232152 17.02434495 40.0544138 17.04636812 C34.01946064 17.06452246 27.9846472 17.06708035 21.94967556 17.05661345 C18.34565561 17.05037862 14.74185381 17.04954234 11.1378479 17.0627594 C7.12026498 17.07646411 3.10348171 17.05746793 -0.9140625 17.03515625 C-2.10899323 17.04325317 -3.30392395 17.0513501 -4.5350647 17.05969238 C-5.62862274 17.04841309 -6.72218079 17.03713379 -7.84887695 17.0255127 C-9.27355034 17.02325054 -9.27355034 17.02325054 -10.727005 17.02094269 C-13.979378 16.36903141 -15.17667301 15.05823799 -17.23828125 12.51757812 C-17.8046875 10.51757812 -17.8046875 10.51757812 -17.80078125 8.51757812 C-17.82269531 7.85757812 -17.84460938 7.19757813 -17.8671875 6.51757812 C-15.39610907 -1.34075825 -6.6055862 -0.04567212 0 0 Z " fill="#000000" transform="translate(303.23828125,272.482421875)"/>
<path d="M0 0 C1.2411557 -0.00700928 2.4823114 -0.01401855 3.76107788 -0.02124023 C7.15804713 -0.03581579 10.55404017 -0.03241883 13.95095444 -0.01972389 C17.50938966 -0.00958116 21.0677838 -0.01899309 24.6262207 -0.02526855 C30.60147573 -0.03254129 36.57653285 -0.02296723 42.55175781 -0.00390625 C49.45528047 0.017862 56.35833057 0.01081034 63.26184177 -0.01121187 C69.19407216 -0.02937668 75.12616047 -0.03191898 81.05840969 -0.0214572 C84.59929078 -0.01522812 88.13994991 -0.01437023 91.68081665 -0.02760315 C95.62854311 -0.04132662 99.57574226 -0.02229413 103.5234375 0 C105.28003189 -0.01214539 105.28003189 -0.01214539 107.07211304 -0.02453613 C114.98512204 0.05836213 114.98512204 0.05836213 118.98730469 2.42492676 C120.90403334 4.68541652 121.42134454 5.59237799 121.32421875 8.51757812 C121.32550781 9.17757813 121.32679688 9.83757812 121.328125 10.51757812 C120.50836388 13.41218292 119.0614313 14.61226124 116.76171875 16.51757812 C114.2504425 17.02094269 114.2504425 17.02094269 111.37231445 17.0255127 C110.27875641 17.03679199 109.18519836 17.04807129 108.0585022 17.05969238 C106.86357147 17.05159546 105.66864075 17.04349854 104.4375 17.03515625 C103.17537689 17.04216553 101.91325378 17.0491748 100.61288452 17.05639648 C97.15412904 17.07462536 93.69585103 17.06756455 90.23708725 17.05488014 C86.61678535 17.04475002 82.99652421 17.05414584 79.3762207 17.0604248 C73.2966376 17.06770121 67.2172489 17.05811384 61.13769531 17.0390625 C54.10977634 17.01729356 47.08232152 17.02434495 40.0544138 17.04636812 C34.01946064 17.06452246 27.9846472 17.06708035 21.94967556 17.05661345 C18.34565561 17.05037862 14.74185381 17.04954234 11.1378479 17.0627594 C7.12026498 17.07646411 3.10348171 17.05746793 -0.9140625 17.03515625 C-2.10899323 17.04325317 -3.30392395 17.0513501 -4.5350647 17.05969238 C-5.62862274 17.04841309 -6.72218079 17.03713379 -7.84887695 17.0255127 C-9.27355034 17.02325054 -9.27355034 17.02325054 -10.727005 17.02094269 C-13.979378 16.36903141 -15.17667301 15.05823799 -17.23828125 12.51757812 C-17.8046875 10.51757812 -17.8046875 10.51757812 -17.80078125 8.51757812 C-17.82269531 7.85757812 -17.84460938 7.19757813 -17.8671875 6.51757812 C-15.39610907 -1.34075825 -6.6055862 -0.04567212 0 0 Z " fill="#000000" transform="translate(105.23828125,272.482421875)"/>
<path d="M0 0 C1.2411557 -0.00700928 2.4823114 -0.01401855 3.76107788 -0.02124023 C7.15804713 -0.03581579 10.55404017 -0.03241883 13.95095444 -0.01972389 C17.50938966 -0.00958116 21.0677838 -0.01899309 24.6262207 -0.02526855 C30.60147573 -0.03254129 36.57653285 -0.02296723 42.55175781 -0.00390625 C49.45528047 0.017862 56.35833057 0.01081034 63.26184177 -0.01121187 C69.19407216 -0.02937668 75.12616047 -0.03191898 81.05840969 -0.0214572 C84.59929078 -0.01522812 88.13994991 -0.01437023 91.68081665 -0.02760315 C95.62854311 -0.04132662 99.57574226 -0.02229413 103.5234375 0 C105.28003189 -0.01214539 105.28003189 -0.01214539 107.07211304 -0.02453613 C114.98512204 0.05836213 114.98512204 0.05836213 118.98730469 2.42492676 C120.90403334 4.68541652 121.42134454 5.59237799 121.32421875 8.51757812 C121.32550781 9.17757812 121.32679688 9.83757812 121.328125 10.51757812 C120.50836388 13.41218292 119.0614313 14.61226124 116.76171875 16.51757812 C114.2504425 17.02094269 114.2504425 17.02094269 111.37231445 17.0255127 C110.27875641 17.03679199 109.18519836 17.04807129 108.0585022 17.05969238 C106.86357147 17.05159546 105.66864075 17.04349854 104.4375 17.03515625 C103.17537689 17.04216553 101.91325378 17.0491748 100.61288452 17.05639648 C97.15412904 17.07462536 93.69585103 17.06756455 90.23708725 17.05488014 C86.61678535 17.04475002 82.99652421 17.05414584 79.3762207 17.0604248 C73.2966376 17.06770121 67.2172489 17.05811384 61.13769531 17.0390625 C54.10977634 17.01729356 47.08232152 17.02434495 40.0544138 17.04636812 C34.01946064 17.06452246 27.9846472 17.06708035 21.94967556 17.05661345 C18.34565561 17.05037862 14.74185381 17.04954234 11.1378479 17.0627594 C7.12026498 17.07646411 3.10348171 17.05746793 -0.9140625 17.03515625 C-2.10899323 17.04325317 -3.30392395 17.0513501 -4.5350647 17.05969238 C-5.62862274 17.04841309 -6.72218079 17.03713379 -7.84887695 17.0255127 C-9.27355034 17.02325054 -9.27355034 17.02325054 -10.727005 17.02094269 C-13.979378 16.36903141 -15.17667301 15.05823799 -17.23828125 12.51757812 C-17.8046875 10.51757812 -17.8046875 10.51757812 -17.80078125 8.51757812 C-17.82269531 7.85757813 -17.84460938 7.19757813 -17.8671875 6.51757812 C-15.39610907 -1.34075825 -6.6055862 -0.04567212 0 0 Z " fill="#000000" transform="translate(303.23828125,227.482421875)"/>
<path d="M0 0 C1.2411557 -0.00700928 2.4823114 -0.01401855 3.76107788 -0.02124023 C7.15804713 -0.03581579 10.55404017 -0.03241883 13.95095444 -0.01972389 C17.50938966 -0.00958116 21.0677838 -0.01899309 24.6262207 -0.02526855 C30.60147573 -0.03254129 36.57653285 -0.02296723 42.55175781 -0.00390625 C49.45528047 0.017862 56.35833057 0.01081034 63.26184177 -0.01121187 C69.19407216 -0.02937668 75.12616047 -0.03191898 81.05840969 -0.0214572 C84.59929078 -0.01522812 88.13994991 -0.01437023 91.68081665 -0.02760315 C95.62854311 -0.04132662 99.57574226 -0.02229413 103.5234375 0 C105.28003189 -0.01214539 105.28003189 -0.01214539 107.07211304 -0.02453613 C114.98512204 0.05836213 114.98512204 0.05836213 118.98730469 2.42492676 C120.90403334 4.68541652 121.42134454 5.59237799 121.32421875 8.51757812 C121.32550781 9.17757812 121.32679688 9.83757812 121.328125 10.51757812 C120.50836388 13.41218292 119.0614313 14.61226124 116.76171875 16.51757812 C114.2504425 17.02094269 114.2504425 17.02094269 111.37231445 17.0255127 C110.27875641 17.03679199 109.18519836 17.04807129 108.0585022 17.05969238 C106.86357147 17.05159546 105.66864075 17.04349854 104.4375 17.03515625 C103.17537689 17.04216553 101.91325378 17.0491748 100.61288452 17.05639648 C97.15412904 17.07462536 93.69585103 17.06756455 90.23708725 17.05488014 C86.61678535 17.04475002 82.99652421 17.05414584 79.3762207 17.0604248 C73.2966376 17.06770121 67.2172489 17.05811384 61.13769531 17.0390625 C54.10977634 17.01729356 47.08232152 17.02434495 40.0544138 17.04636812 C34.01946064 17.06452246 27.9846472 17.06708035 21.94967556 17.05661345 C18.34565561 17.05037862 14.74185381 17.04954234 11.1378479 17.0627594 C7.12026498 17.07646411 3.10348171 17.05746793 -0.9140625 17.03515625 C-2.10899323 17.04325317 -3.30392395 17.0513501 -4.5350647 17.05969238 C-5.62862274 17.04841309 -6.72218079 17.03713379 -7.84887695 17.0255127 C-9.27355034 17.02325054 -9.27355034 17.02325054 -10.727005 17.02094269 C-13.979378 16.36903141 -15.17667301 15.05823799 -17.23828125 12.51757812 C-17.8046875 10.51757812 -17.8046875 10.51757812 -17.80078125 8.51757812 C-17.82269531 7.85757813 -17.84460938 7.19757813 -17.8671875 6.51757812 C-15.39610907 -1.34075825 -6.6055862 -0.04567212 0 0 Z " fill="#000000" transform="translate(105.23828125,227.482421875)"/>
<path d="M0 0 C1.2411557 -0.00700928 2.4823114 -0.01401855 3.76107788 -0.02124023 C7.15804713 -0.03581579 10.55404017 -0.03241883 13.95095444 -0.01972389 C17.50938966 -0.00958116 21.0677838 -0.01899309 24.6262207 -0.02526855 C30.60147573 -0.03254129 36.57653285 -0.02296723 42.55175781 -0.00390625 C49.45528047 0.017862 56.35833057 0.01081034 63.26184177 -0.01121187 C69.19407216 -0.02937668 75.12616047 -0.03191898 81.05840969 -0.0214572 C84.59929078 -0.01522812 88.13994991 -0.01437023 91.68081665 -0.02760315 C95.62854311 -0.04132662 99.57574226 -0.02229413 103.5234375 0 C105.28003189 -0.01214539 105.28003189 -0.01214539 107.07211304 -0.02453613 C114.98512204 0.05836213 114.98512204 0.05836213 118.98730469 2.42492676 C120.90403334 4.68541652 121.42134454 5.59237799 121.32421875 8.51757812 C121.32550781 9.17757812 121.32679688 9.83757812 121.328125 10.51757812 C120.50836388 13.41218292 119.0614313 14.61226124 116.76171875 16.51757812 C114.2504425 17.02094269 114.2504425 17.02094269 111.37231445 17.0255127 C110.27875641 17.03679199 109.18519836 17.04807129 108.0585022 17.05969238 C106.86357147 17.05159546 105.66864075 17.04349854 104.4375 17.03515625 C103.17537689 17.04216553 101.91325378 17.0491748 100.61288452 17.05639648 C97.15412904 17.07462536 93.69585103 17.06756455 90.23708725 17.05488014 C86.61678535 17.04475002 82.99652421 17.05414584 79.3762207 17.0604248 C73.2966376 17.06770121 67.2172489 17.05811384 61.13769531 17.0390625 C54.10977634 17.01729356 47.08232152 17.02434495 40.0544138 17.04636812 C34.01946064 17.06452246 27.9846472 17.06708035 21.94967556 17.05661345 C18.34565561 17.05037862 14.74185381 17.04954234 11.1378479 17.0627594 C7.12026498 17.07646411 3.10348171 17.05746793 -0.9140625 17.03515625 C-2.10899323 17.04325317 -3.30392395 17.0513501 -4.5350647 17.05969238 C-5.62862274 17.04841309 -6.72218079 17.03713379 -7.84887695 17.0255127 C-9.27355034 17.02325054 -9.27355034 17.02325054 -10.727005 17.02094269 C-13.979378 16.36903141 -15.17667301 15.05823799 -17.23828125 12.51757812 C-17.8046875 10.51757812 -17.8046875 10.51757812 -17.80078125 8.51757812 C-17.82269531 7.85757813 -17.84460938 7.19757813 -17.8671875 6.51757812 C-15.39610907 -1.34075825 -6.6055862 -0.04567212 0 0 Z " fill="#000000" transform="translate(303.23828125,182.482421875)"/>
<path d="M0 0 C1.2411557 -0.00700928 2.4823114 -0.01401855 3.76107788 -0.02124023 C7.15804713 -0.03581579 10.55404017 -0.03241883 13.95095444 -0.01972389 C17.50938966 -0.00958116 21.0677838 -0.01899309 24.6262207 -0.02526855 C30.60147573 -0.03254129 36.57653285 -0.02296723 42.55175781 -0.00390625 C49.45528047 0.017862 56.35833057 0.01081034 63.26184177 -0.01121187 C69.19407216 -0.02937668 75.12616047 -0.03191898 81.05840969 -0.0214572 C84.59929078 -0.01522812 88.13994991 -0.01437023 91.68081665 -0.02760315 C95.62854311 -0.04132662 99.57574226 -0.02229413 103.5234375 0 C105.28003189 -0.01214539 105.28003189 -0.01214539 107.07211304 -0.02453613 C114.98512204 0.05836213 114.98512204 0.05836213 118.98730469 2.42492676 C120.90403334 4.68541652 121.42134454 5.59237799 121.32421875 8.51757812 C121.32550781 9.17757812 121.32679688 9.83757812 121.328125 10.51757812 C120.50836388 13.41218292 119.0614313 14.61226124 116.76171875 16.51757812 C114.2504425 17.02094269 114.2504425 17.02094269 111.37231445 17.0255127 C110.27875641 17.03679199 109.18519836 17.04807129 108.0585022 17.05969238 C106.86357147 17.05159546 105.66864075 17.04349854 104.4375 17.03515625 C103.17537689 17.04216553 101.91325378 17.0491748 100.61288452 17.05639648 C97.15412904 17.07462536 93.69585103 17.06756455 90.23708725 17.05488014 C86.61678535 17.04475002 82.99652421 17.05414584 79.3762207 17.0604248 C73.2966376 17.06770121 67.2172489 17.05811384 61.13769531 17.0390625 C54.10977634 17.01729356 47.08232152 17.02434495 40.0544138 17.04636812 C34.01946064 17.06452246 27.9846472 17.06708035 21.94967556 17.05661345 C18.34565561 17.05037862 14.74185381 17.04954234 11.1378479 17.0627594 C7.12026498 17.07646411 3.10348171 17.05746793 -0.9140625 17.03515625 C-2.10899323 17.04325317 -3.30392395 17.0513501 -4.5350647 17.05969238 C-5.62862274 17.04841309 -6.72218079 17.03713379 -7.84887695 17.0255127 C-9.27355034 17.02325054 -9.27355034 17.02325054 -10.727005 17.02094269 C-13.979378 16.36903141 -15.17667301 15.05823799 -17.23828125 12.51757812 C-17.8046875 10.51757812 -17.8046875 10.51757812 -17.80078125 8.51757812 C-17.82269531 7.85757813 -17.84460938 7.19757813 -17.8671875 6.51757812 C-15.39610907 -1.34075825 -6.6055862 -0.04567212 0 0 Z " fill="#000000" transform="translate(105.23828125,182.482421875)"/>
</svg>
