<?xml version="1.0" encoding="UTF-8"?>
<svg version="1.1" xmlns="http://www.w3.org/2000/svg" width="512" height="512">
<path d="M0 0 C1.10204116 -0.00623996 2.20408232 -0.01247993 3.33951867 -0.01890898 C7.03370224 -0.03486847 10.72722872 -0.02222239 14.42141724 -0.00964355 C17.0694064 -0.01506342 19.71735024 -0.02204058 22.36532593 -0.03088379 C28.8122466 -0.04866503 35.25898093 -0.04483052 41.70590888 -0.03323323 C46.94694109 -0.02419603 52.18792112 -0.02297614 57.42895889 -0.02732849 C58.1751837 -0.02794142 58.92140852 -0.02855436 59.6902462 -0.02918586 C61.20626116 -0.03046478 62.72227611 -0.03176164 64.23829104 -0.03307623 C78.45287287 -0.04448127 92.66735151 -0.03137035 106.88191642 -0.00987476 C119.07189289 0.00798883 131.26171696 0.0048981 143.45169067 -0.0135498 C157.61264528 -0.03497055 171.77350938 -0.04337491 185.93447793 -0.03110075 C187.44549631 -0.02982658 188.9565147 -0.0285691 190.46753311 -0.02732849 C191.21094726 -0.02671139 191.95436141 -0.02609429 192.72030326 -0.02545848 C197.95246222 -0.02200864 203.18456366 -0.02782618 208.41671371 -0.0372467 C214.79687341 -0.0484818 221.17683633 -0.0453954 227.55697356 -0.02412373 C230.81071324 -0.01363221 234.06405857 -0.01162232 237.31780624 -0.02272034 C240.84891623 -0.03365368 244.37910492 -0.01993703 247.91015625 0 C249.44489713 -0.01338433 249.44489713 -0.01338433 251.01064289 -0.02703905 C259.36508214 0.06442831 265.31444306 2.41394474 271.45706177 8.13293457 C272.28302856 8.86818359 273.10899536 9.60343262 273.95999146 10.36096191 C276.41751488 12.68408066 278.30001846 15.15738517 280.24172974 17.92199707 C285.85776784 25.33515602 291.64956349 31.42180416 301.16666985 32.78343773 C310.83406589 33.73358325 320.58222044 33.35141607 330.2718811 32.9743042 C336.2187888 32.76206654 342.1693656 32.69245012 348.11923218 32.61062622 C351.27579914 32.56717724 354.42691944 32.48256189 357.58151245 32.36398315 C359.01886283 32.32494942 360.4562201 32.28616829 361.89358521 32.24768066 C363.76406525 32.1795668 363.76406525 32.1795668 365.67233276 32.1100769 C371.0300701 32.73523417 373.88563014 35.02699326 377.2256465 39.1612606 C379.38389099 43.05206067 379.64168563 46.08483477 379.58542633 50.41345215 C379.59124009 51.19522953 379.59705386 51.97700691 379.60304379 52.78247452 C379.61765951 55.40611822 379.60375153 58.0288287 379.58999634 60.65246582 C379.59460463 62.55078103 379.60095707 64.44909268 379.60890532 66.34739685 C379.62563152 71.56707789 379.61733725 76.78646708 379.60496044 82.00614929 C379.59592577 87.63404333 379.60987182 93.26188651 379.62088013 98.88977051 C379.63868683 109.91607525 379.63481576 120.94227121 379.62322956 131.96858025 C379.61420399 140.92815927 379.61296745 149.88770777 379.61732483 158.84729004 C379.61793776 160.12141093 379.61855069 161.39553183 379.6191822 162.70826244 C379.62046107 165.29643886 379.62175792 167.88461527 379.62307256 170.47279167 C379.63415921 194.06201748 379.62265282 217.65117032 379.60170218 241.24038386 C379.58271954 262.77751591 379.58441804 284.31455335 379.60354614 305.85168457 C379.62496167 330.04523015 379.63338598 354.23870846 379.62109709 378.43226624 C379.61982286 381.01103718 379.61856538 383.58980814 379.61732483 386.1685791 C379.61639918 388.07189389 379.61639918 388.07189389 379.61545482 390.01365948 C379.61199798 398.96472632 379.61783747 407.91575964 379.62724304 416.86682129 C379.63844979 427.77196015 379.63545082 438.67698382 379.61412007 449.58210945 C379.60359188 455.14839139 379.59951801 460.71448111 379.61271667 466.28076172 C379.62460965 471.37333501 379.61812906 476.46553736 379.59680647 481.55807686 C379.59232727 483.4032104 379.59463606 485.24837508 379.60430962 487.09348869 C379.61643078 489.59691366 379.60404279 492.09905936 379.58542633 494.60241699 C379.594791 495.32293873 379.60415566 496.04346046 379.6138041 496.78581619 C379.5204224 503.04589054 377.05308819 506.56873617 372.7003479 510.85118866 C367.02043478 513.45191522 361.34219098 513.05868018 355.18948364 513.01586914 C353.75314451 513.02047946 352.31681009 513.02683326 350.88048553 513.03477812 C346.93774903 513.0514768 342.99539979 513.04322279 339.0526619 513.03083324 C334.79900742 513.02178723 330.54541978 513.03575024 326.29177856 513.04675293 C317.96057093 513.06454755 309.62950737 513.06069398 301.29829407 513.04910237 C294.52788103 513.04007202 287.75750839 513.03884232 280.98709106 513.04319763 C280.02381063 513.04381056 279.0605302 513.0444235 278.06805944 513.045055 C276.11122702 513.04633389 274.15439461 513.04763074 272.19756222 513.04894537 C253.84457254 513.06035393 235.49166276 513.04723313 217.13868618 513.0257439 C201.38800053 513.00787267 185.63743279 513.0109767 169.88674927 513.02941895 C151.59982613 513.05082078 133.31297303 513.05925526 115.02603912 513.04696989 C113.07637025 513.04569568 111.12670137 513.0444382 109.17703247 513.04319763 C108.2177363 513.04258053 107.25844012 513.04196343 106.27007437 513.04132763 C99.50710972 513.03787267 92.74418946 513.04370622 85.98123169 513.05311584 C77.74039899 513.06432957 69.49971872 513.06130898 61.2589035 513.03999287 C57.05357982 513.02947399 52.84851033 513.02537479 48.64318848 513.03858948 C44.7940561 513.05050203 40.94541375 513.04397003 37.09632587 513.02267927 C35.70341126 513.01820833 34.31045532 513.02049059 32.91756725 513.03018242 C20.01679125 513.11306649 20.01679125 513.11306649 15.08206177 508.50793457 C10.13165995 503.18051539 10.60168772 497.99985323 10.83206177 491.13293457 C10.85010864 490.11070801 10.86815552 489.08848145 10.88674927 488.03527832 C10.93366686 485.52518709 10.99929447 483.01705693 11.08206177 480.50793457 C10.44703735 480.52888184 9.81201294 480.5498291 9.15774536 480.57141113 C6.257681 480.65498038 3.35787061 480.70672231 0.45706177 480.75793457 C-0.54196167 480.7914502 -1.54098511 480.82496582 -2.57028198 480.85949707 C-8.52919187 480.93842303 -12.34909435 480.75344488 -16.91793823 476.50793457 C-20.60980411 471.90294754 -21.49620714 468.36559266 -21.4213028 462.60241699 C-21.42711656 461.82063961 -21.43293032 461.03886223 -21.43892026 460.23339462 C-21.45353598 457.60975092 -21.439628 454.98704044 -21.4258728 452.36340332 C-21.4304811 450.46508811 -21.43683353 448.56677646 -21.44478178 446.66847229 C-21.46150798 441.44879125 -21.45321372 436.22940206 -21.44083691 431.00971985 C-21.43180223 425.38182581 -21.44574828 419.75398263 -21.45675659 414.12609863 C-21.4745633 403.09979389 -21.47069223 392.07359793 -21.45910603 381.04728889 C-21.45008045 372.08770987 -21.44884391 363.12816137 -21.45320129 354.1685791 C-21.45381423 352.89445821 -21.45442716 351.62033731 -21.45505866 350.3076067 C-21.45633754 347.71943028 -21.45763439 345.13125387 -21.45894903 342.54307747 C-21.47003567 318.95385166 -21.45852929 295.36469882 -21.43757864 271.77548528 C-21.418596 250.23835323 -21.42029451 228.70131579 -21.43942261 207.16418457 C-21.46083813 182.97063899 -21.46926244 158.77716068 -21.45697355 134.58360291 C-21.45569933 132.00483196 -21.45444184 129.426061 -21.45320129 126.84729004 C-21.45258419 125.57841352 -21.45196709 124.30953699 -21.45133129 123.00220966 C-21.44787445 114.05114283 -21.45371393 105.1001095 -21.46311951 96.14904785 C-21.47432626 85.24390899 -21.47132728 74.33888532 -21.44999653 63.43375969 C-21.43946835 57.86747775 -21.43539448 52.30138803 -21.44859314 46.73510742 C-21.46048612 41.64253413 -21.45400553 36.55033178 -21.43268293 31.45779228 C-21.42820374 29.61265875 -21.43051253 27.76749406 -21.44018608 25.92238045 C-21.45230724 23.41895549 -21.43991926 20.91680978 -21.4213028 18.41345215 C-21.43066746 17.69293041 -21.44003212 16.97240868 -21.44968057 16.23005295 C-21.37473699 11.2060242 -20.0379007 8.39482742 -16.91793823 4.50793457 C-11.65988354 -0.29063985 -6.75700355 -0.05867136 0 0 Z M-4.91793823 15.50793457 C-4.91793823 163.67793457 -4.91793823 311.84793457 -4.91793823 464.50793457 C14.88206177 465.00293457 14.88206177 465.00293457 35.08206177 465.50793457 C40.08206177 467.50793457 40.08206177 467.50793457 41.45706177 469.25793457 C42.30464096 472.30921967 41.87515116 474.46775855 41.08206177 477.50793457 C37.50820113 481.08179521 31.93414624 480.19822705 27.08206177 480.50793457 C27.08206177 486.11793457 27.08206177 491.72793457 27.08206177 497.50793457 C137.96206177 497.50793457 248.84206177 497.50793457 363.08206177 497.50793457 C363.08206177 349.33793457 363.08206177 201.16793457 363.08206177 48.50793457 C346.25206177 48.50793457 329.42206177 48.50793457 312.08206177 48.50793457 C315.79046916 52.83440986 319.26287582 56.79549608 323.30471802 60.72277832 C324.26529288 61.66584402 325.22557045 62.60921263 326.18557739 63.55285645 C327.66545906 65.00185107 329.14755579 66.44833541 330.63504028 67.88952637 C345.69336703 82.50576468 345.69336703 82.50576468 346.25003052 91.10168457 C346.25647583 92.06074707 346.26292114 93.01980957 346.26956177 94.00793457 C346.28374146 94.96699707 346.29792114 95.92605957 346.31253052 96.91418457 C346.08206177 99.50793457 346.08206177 99.50793457 344.08206177 102.50793457 C340.39946865 103.73546561 336.99286081 103.66344168 333.15750122 103.66906738 C332.35061356 103.67403229 331.54372589 103.67899719 330.71238708 103.68411255 C328.0400304 103.69872928 325.36773313 103.7055365 322.69534302 103.71105957 C320.83549498 103.71681285 318.97564696 103.72257056 317.11579895 103.72833252 C313.21270471 103.7388421 309.30963106 103.74468458 305.40652466 103.74816895 C300.41769517 103.75364371 295.42913997 103.77765012 290.44039631 103.8061409 C286.59610719 103.82481631 282.75188336 103.82997556 278.90755272 103.83150482 C277.06924126 103.83452245 275.23093072 103.8425208 273.39266396 103.85569 C270.81276591 103.87284794 268.23352776 103.87084632 265.65359497 103.86437988 C264.52561493 103.87820206 264.52561493 103.87820206 263.37484741 103.89230347 C258.00791621 103.85040953 253.97457434 102.76062183 249.08206177 100.50793457 C231.3933648 78.73723061 243.26005577 29.0354789 243.08206177 15.50793457 C161.24206177 15.50793457 79.40206177 15.50793457 -4.91793823 15.50793457 Z M259.08206177 19.50793457 C259.08206177 42.27793457 259.08206177 65.04793457 259.08206177 88.50793457 C281.85206177 88.50793457 304.62206177 88.50793457 328.08206177 88.50793457 C324.06675751 83.82341294 320.07864284 79.35928932 315.72537231 75.02185059 C315.12138107 74.41610703 314.51738983 73.81036346 313.89509583 73.18626404 C311.9221446 71.20895398 309.94560937 69.2352736 307.96878052 67.26184082 C306.58955012 65.8819362 305.21046815 64.50188321 303.83152771 63.12168884 C300.9543395 60.24303222 298.0753647 57.36617778 295.19509888 54.49060059 C291.49483597 50.79606675 287.79912371 47.09701833 284.10470867 43.39663792 C281.26449046 40.55281835 278.42190999 37.71136968 275.5785923 34.87064934 C274.21382968 33.50655551 272.84981421 32.14171376 271.48654747 30.77612495 C269.59069205 28.87774655 267.69168984 26.98257489 265.79177856 25.08825684 C265.22505432 24.51950836 264.65833008 23.95075989 264.07443237 23.36477661 C261.93384417 20.71430779 261.93384417 20.71430779 259.08206177 19.50793457 Z " fill="#000000" transform="translate(76.91793823242188,-0.5079345703125)"/>
<path d="M0 0 C2.76107044 2.07911598 3.86514386 3.27158497 4.50024599 6.70204008 C4.50035333 7.74529687 4.50046066 8.78855366 4.50057125 9.8634243 C4.51038554 11.06945978 4.52019983 12.27549525 4.53031152 13.51807725 C4.52097214 14.85811324 4.51125656 16.19814665 4.50120544 17.53817749 C4.50509714 18.96041534 4.51073653 20.38264931 4.51797634 21.80487406 C4.53276851 25.7179338 4.52252766 29.63059267 4.50823963 33.54363966 C4.49715475 37.76187616 4.50906427 41.98005528 4.51808167 46.19828796 C4.53203386 54.46427074 4.52444304 62.73010102 4.50940608 70.99607657 C4.49256582 80.61889567 4.49575381 90.24167657 4.49950016 99.86450584 C4.50538253 117.03372486 4.49119326 134.2028706 4.46655273 151.37207031 C4.44263835 168.03713733 4.43554509 184.70210641 4.44604492 201.3671875 C4.4574524 219.50540057 4.45938571 237.64356832 4.44494683 255.78178084 C4.44342096 257.71575331 4.44190061 259.64972579 4.44038582 261.58369827 C4.439628 262.53529209 4.43887019 263.48688591 4.43808941 264.4673159 C4.43334468 271.17664655 4.43519942 277.88595698 4.43945122 284.59528732 C4.44437634 292.77210367 4.4384006 300.94882737 4.41855692 309.1256225 C4.40867996 313.29848719 4.4035841 317.47121078 4.41144943 321.64408302 C4.41850148 325.46361772 4.4117129 329.28286761 4.3938458 333.10236473 C4.38979813 334.48457154 4.39080657 335.86680426 4.39736467 337.24900143 C4.40551565 339.127623 4.39340669 341.00629976 4.38031673 342.88489342 C4.3792876 343.92847492 4.37825848 344.97205642 4.37719816 346.0472616 C3.76262776 350.85816956 2.01810647 354.08122099 -1.5625 357.3125 C-4.8812951 359.61012738 -6.53217508 360.12563444 -10.51408195 360.13422108 C-11.47004764 360.13867892 -12.42601333 360.14313676 -13.41094768 360.14772969 C-14.99729619 360.14745315 -14.99729619 360.14745315 -16.61569214 360.14717102 C-17.73347207 360.15084771 -18.85125201 360.1545244 -20.00290406 360.1583125 C-23.77391325 360.16938556 -27.54489492 360.17319928 -31.31591797 360.17700195 C-34.00919765 360.18326376 -36.70247435 360.18989715 -39.39575195 360.19691467 C-47.49585513 360.21668857 -55.59595958 360.22674585 -63.69608086 360.23564246 C-67.5080115 360.2400233 -71.31994074 360.24539059 -75.13187027 360.25063133 C-87.79874572 360.26764351 -100.4656203 360.282139 -113.13250542 360.28938007 C-116.42053097 360.29129005 -119.70855651 360.29321037 -122.99658203 360.29516602 C-124.22245434 360.29589163 -124.22245434 360.29589163 -125.47309174 360.2966319 C-138.72021822 360.30493715 -151.96725454 360.33028244 -165.21434163 360.36274669 C-178.80621524 360.39578517 -192.39804298 360.41382586 -205.98995697 360.41702431 C-213.62487065 360.41919225 -221.25965281 360.42798233 -228.89452744 360.45348549 C-235.39491 360.47514861 -241.89512911 360.48326464 -248.39554368 360.47351871 C-251.71358662 360.46896129 -255.03122009 360.47310685 -258.34923172 360.49028015 C-261.94322365 360.50784617 -265.53634968 360.5009678 -269.13034058 360.48774719 C-270.70999692 360.50420106 -270.70999692 360.50420106 -272.32156551 360.52098733 C-279.32995438 360.45842032 -279.32995438 360.45842032 -282.64810371 358.1882658 C-284.64916834 354.9492146 -284.53206718 352.72447023 -284 349 C-281.78136971 346.09282927 -280.48055071 345.16018357 -277 344 C-275.49955174 343.91005168 -273.99539507 343.87624214 -272.4922533 343.87695217 C-271.56318033 343.87496112 -270.63410736 343.87297007 -269.67688066 343.87091869 C-268.65451788 343.87383153 -267.63215511 343.87674437 -266.57881165 343.87974548 C-265.494107 343.87889106 -264.40940235 343.87803663 -263.29182786 343.87715632 C-259.63895269 343.87550263 -255.98612293 343.88102112 -252.33325195 343.88647461 C-249.72200522 343.88675653 -247.11075841 343.88659865 -244.49951172 343.8860321 C-238.86829974 343.88550729 -233.23709934 343.88864964 -227.60589027 343.89426994 C-219.46406879 343.90239072 -211.32225291 343.90500076 -203.18042781 343.90625793 C-189.97143763 343.90844754 -176.76245362 343.91510517 -163.5534668 343.92456055 C-150.72078482 343.93373701 -137.88810452 343.9408167 -125.05541992 343.94506836 C-124.26465426 343.94533108 -123.47388861 343.94559381 -122.65916035 343.94586449 C-118.69219338 343.94716951 -114.7252264 343.94843322 -110.75825942 343.94967639 C-77.83883512 343.96004617 -44.91941838 343.97766202 -12 344 C-12.00170874 342.93379482 -12.00170874 342.93379482 -12.003452 341.84605014 C-12.07056082 299.73436789 -12.12204682 257.62269184 -12.15319599 215.51096689 C-12.15694819 210.45652992 -12.16083115 205.40209306 -12.16479492 200.34765625 C-12.16558185 199.34139293 -12.16636878 198.33512962 -12.16717956 197.29837348 C-12.18023969 180.99706358 -12.20389687 164.69578537 -12.23145839 148.39449428 C-12.25949571 131.67254378 -12.27617272 114.9506099 -12.28226548 98.22863686 C-12.2863854 87.90716395 -12.299406 77.58578058 -12.3237494 67.26433523 C-12.33958593 60.19014304 -12.34440509 53.11599726 -12.34050413 46.04178862 C-12.33857934 41.95804651 -12.34156609 37.87446107 -12.35761642 33.79074669 C-12.37220189 30.05249505 -12.37296128 26.31450563 -12.36269668 22.57624198 C-12.36082646 20.58242125 -12.37377737 18.58860366 -12.38724393 16.59482753 C-12.38127078 15.40897693 -12.37529764 14.22312633 -12.36914349 13.00134087 C-12.37085223 11.46916933 -12.37085223 11.46916933 -12.37259549 9.90604484 C-11.92548658 6.41883529 -10.79303752 4.00802312 -9 1 C-5.90826248 -0.54586876 -3.40570448 -0.29359521 0 0 Z " fill="#000000" transform="translate(420,120)"/>
<path d="M0 0 C2.90420212 2.04079068 3.83506028 3.5257983 5 6.875 C5 11.08071355 3.54219115 12.68953966 1 16 C-0.89356113 17.40716631 -2.79089521 18.80926569 -4.69140625 20.20703125 C-8.83796194 23.88252226 -10.32798215 27.21732224 -10.92138672 32.72412109 C-11.29707068 39.71441596 -11.12866996 46.69367081 -10.9375 53.6875 C-10.87600414 57.31189741 -10.83046985 60.93541748 -10.80628967 64.56025696 C-10.78745946 66.8055391 -10.74542985 69.05078695 -10.67649841 71.29508972 C-10.57810123 77.68406445 -11.0953192 82.7549834 -15 88 C-19.72128916 91.75776076 -23.3353476 93.11840829 -29.29418945 93.16113281 C-30.37573807 93.17074036 -31.45728668 93.1803479 -32.5716095 93.19024658 C-33.74036118 93.19449646 -34.90911285 93.19874634 -36.11328125 93.203125 C-37.31558884 93.20882507 -38.51789642 93.21452515 -39.75663757 93.22039795 C-42.30283731 93.22985075 -44.8490493 93.23638304 -47.39526367 93.24023438 C-51.28651333 93.24993522 -55.17723382 93.280955 -59.06835938 93.3125 C-61.54166353 93.31903055 -64.01497146 93.32428081 -66.48828125 93.328125 C-67.65096024 93.3404718 -68.81363922 93.3528186 -70.0115509 93.36553955 C-76.56174951 93.34752149 -81.61921189 93.1559376 -86.64453125 88.46484375 C-89.92458316 84.1755451 -91.12557586 82.18936933 -91.09423828 76.83520508 C-91.09026535 75.2176104 -91.09026535 75.2176104 -91.08621216 73.56733704 C-91.08096527 72.39656113 -91.07571838 71.22578522 -91.0703125 70.01953125 C-91.0788988 67.55142525 -91.08937548 65.08332523 -91.1015625 62.61523438 C-91.11824888 58.71528482 -91.12502716 54.8166666 -91.09960938 50.91674805 C-91.07862827 47.15850834 -91.10190415 43.40265728 -91.1328125 39.64453125 C-91.11542023 38.4838765 -91.09802795 37.32322174 -91.08010864 36.12739563 C-91.07087248 30.09867616 -91.07087248 30.09867616 -93.58978271 24.80819702 C-95.4478766 22.96218429 -95.4478766 22.96218429 -97.42599487 21.49565125 C-99.41315074 19.60741588 -99.61144219 18.52015214 -99.75 15.8125 C-99 12 -99 12 -96.875 9.5 C-93.44315756 7.70947351 -91.81420233 7.29943223 -88 8 C-87.25878906 8.8353125 -86.51757812 9.670625 -85.75390625 10.53125 C-80.6558284 14.95630907 -73.18918047 13.35153462 -66.875 13.0625 C-64.16348 12.94600177 -61.4557282 12.85838723 -58.7421875 12.78515625 C-57.5444873 12.73238525 -56.34678711 12.67961426 -55.11279297 12.62524414 C-52 13 -52 13 -49.63330078 14.89233398 C-47.92197301 17.10068864 -47.16832423 18.22265023 -47 21 C-47.75125471 24.08014431 -48.58059138 25.62117931 -50.9375 27.75 C-55.56868459 29.64027943 -60.01581192 29.69974771 -65 30 C-60.71 34.29 -56.42 38.58 -52 43 C-48.39439394 41.19719697 -46.66054854 39.90126042 -43.90576172 37.11694336 C-43.11168915 36.31949203 -42.31761658 35.52204071 -41.4994812 34.70042419 C-40.22743332 33.40818687 -40.22743332 33.40818687 -38.9296875 32.08984375 C-38.05224884 31.20720352 -37.17481018 30.32456329 -36.27078247 29.41517639 C-33.94347304 27.07307161 -31.62028733 24.72698316 -29.29943848 22.378479 C-26.02330685 19.06430506 -22.74193282 15.75535053 -19.45779419 12.44911194 C-17.70998749 10.68901146 -15.96486025 8.92624555 -14.22262573 7.16062927 C-13.43485748 6.36633011 -12.64708923 5.57203094 -11.83544922 4.75366211 C-11.14135956 4.05131943 -10.4472699 3.34897675 -9.73214722 2.62535095 C-6.60487071 -0.309112 -4.2158579 -0.42158579 0 0 Z M-75 44 C-75 54.89 -75 65.78 -75 77 C-59.16 77 -43.32 77 -27 77 C-27 66.11 -27 55.22 -27 44 C-32.52415278 48.68503616 -32.52415278 48.68503616 -37.5 53.6875 C-41.32821544 57.51571544 -44.83850509 59.74086107 -50.3828125 60.1953125 C-57.60687143 59.99648519 -61.16233362 57.0790669 -66 52 C-67.47787651 50.5195443 -68.9570191 49.04035127 -70.4375 47.5625 C-71.09621094 46.88316406 -71.75492188 46.20382813 -72.43359375 45.50390625 C-73.75831047 43.88457179 -73.75831047 43.88457179 -75 44 Z " fill="#000000" transform="translate(203,83)"/>
<path d="M0 0 C1.09834167 -0.01283524 2.19668335 -0.02567047 3.32830811 -0.03889465 C5.10954071 -0.04997505 5.10954071 -0.04997505 6.92675781 -0.0612793 C8.14888977 -0.06935104 9.37102173 -0.07742279 10.63018799 -0.08573914 C13.21926454 -0.09957933 15.80835933 -0.11030177 18.39746094 -0.11816406 C22.35028815 -0.13536923 26.30227746 -0.17925716 30.25488281 -0.22338867 C32.77050166 -0.2335163 35.28612762 -0.24203218 37.80175781 -0.2487793 C39.57084503 -0.27504143 39.57084503 -0.27504143 41.37567139 -0.30183411 C48.03706596 -0.28429204 52.24115629 0.14562447 57.62988281 4.17700195 C62.04759847 8.82722897 62.74603773 12.32622236 62.79101562 18.5847168 C62.80062317 19.66618988 62.81023071 20.74766296 62.82012939 21.86190796 C62.82437927 23.02549835 62.82862915 24.18908875 62.83300781 25.38793945 C62.83870789 26.58883209 62.84440796 27.78972473 62.85028076 29.02700806 C62.85972512 31.56723145 62.8662625 34.10746706 62.87011719 36.64770508 C62.87982799 40.53008398 62.91085981 44.41193465 62.94238281 48.29418945 C62.94891256 50.76293631 62.95416314 53.23168695 62.95800781 55.70043945 C62.97035461 56.85998138 62.98270142 58.01952332 62.99542236 59.21420288 C62.97737621 65.75520836 62.77903824 70.80347922 58.09472656 75.8215332 C53.71030435 79.17432666 51.66622047 80.3003499 46.18969727 80.35400391 C45.05123856 80.36683914 43.91277985 80.37967438 42.73982239 80.39289856 C41.50342514 80.40028549 40.26702789 80.40767242 38.99316406 80.4152832 C37.72522507 80.42335495 36.45728607 80.4314267 35.15092468 80.43974304 C32.46166317 80.45359622 29.77252475 80.46460823 27.08325195 80.47216797 C23.65119362 80.48320222 20.21978909 80.5175649 16.78796101 80.55733967 C13.50226058 80.58990402 10.21650125 80.59429415 6.93066406 80.6027832 C5.70438797 80.62029129 4.47811188 80.63779938 3.2146759 80.65583801 C-3.49598002 80.6388287 -8.09991495 80.53026395 -13.37011719 76.17700195 C-18.41850947 70.03004095 -17.95273308 63.716586 -17.90136719 56.0168457 C-17.90519409 54.75360977 -17.909021 53.49037384 -17.91296387 52.18885803 C-17.91567989 49.52475519 -17.91037272 46.86213235 -17.89160156 44.19824219 C-17.86878856 40.79635514 -17.88196242 37.39572901 -17.90589142 33.9938879 C-17.92387631 30.73066287 -17.91126049 27.46758723 -17.90136719 24.2043457 C-17.90946411 22.9885936 -17.91756104 21.77284149 -17.92590332 20.52024841 C-17.85508611 14.1277224 -17.76209161 9.98891608 -13.37011719 5.17700195 C-8.95379714 1.1915424 -5.88140321 0.05986995 0 0 Z M-1.37011719 16.17700195 C-1.37011719 32.01700195 -1.37011719 47.85700195 -1.37011719 64.17700195 C14.46988281 64.17700195 30.30988281 64.17700195 46.62988281 64.17700195 C46.62988281 48.33700195 46.62988281 32.49700195 46.62988281 16.17700195 C30.78988281 16.17700195 14.94988281 16.17700195 -1.37011719 16.17700195 Z " fill="#000000" transform="translate(129.3701171875,303.822998046875)"/>
<path d="M0 0 C1.24103989 -0.00145523 2.48207977 -0.00291046 3.76072693 -0.00440979 C7.04497418 -0.00233132 10.32844452 0.01864172 13.61254883 0.04656982 C15.62101169 0.05859326 17.62896939 0.05695482 19.63745117 0.05004883 C23.50853302 0.03744409 27.3789423 0.04613698 31.25 0.0625 C33.04081749 0.05809654 33.04081749 0.05809654 34.86781311 0.05360413 C41.47855837 0.12859666 46.59046826 0.33276789 51.703125 4.99609375 C55.15950002 9.4350503 56.17910828 12.31709444 56.2355957 17.86621094 C56.25484856 19.51372345 56.25484856 19.51372345 56.27449036 21.19451904 C56.28187729 22.38200745 56.28926422 23.56949585 56.296875 24.79296875 C56.30494675 26.01510071 56.31301849 27.23723267 56.32133484 28.49639893 C56.33517504 31.08547548 56.34589747 33.67457027 56.35375977 36.26367188 C56.37096494 40.21649909 56.41485287 44.1684884 56.45898438 48.12109375 C56.469112 50.6367126 56.47762789 53.15233856 56.484375 55.66796875 C56.50188309 56.84736023 56.51939117 58.02675171 56.53742981 59.24188232 C56.51989234 65.90153113 56.0943824 70.11134771 52.05859375 75.49609375 C47.70799833 79.52835292 44.55196757 80.61338339 38.7043457 80.6730957 C37.60923172 80.68593094 36.51411774 80.69876617 35.38581848 80.71199036 C34.20146713 80.71937729 33.01711578 80.72676422 31.796875 80.734375 C29.96723457 80.74648262 29.96723457 80.74648262 28.10063171 80.75883484 C25.51575136 80.77267605 22.93085272 80.78339803 20.34594727 80.79125977 C16.40410417 80.80844979 12.46310462 80.85233507 8.52148438 80.89648438 C6.00912075 80.90661338 3.49674999 80.91512883 0.984375 80.921875 C-0.77697029 80.94813713 -0.77697029 80.94813713 -2.57389832 80.97492981 C-9.10592883 80.95772724 -14.70440509 80.74143771 -19.94140625 76.49609375 C-25.04419864 70.43577025 -24.5238348 64.0229237 -24.47265625 56.37109375 C-24.47839661 54.47979736 -24.47839661 54.47979736 -24.48425293 52.55029297 C-24.48696914 49.89038558 -24.4816611 47.23196009 -24.46289062 44.57226562 C-24.44010089 41.17944335 -24.45323638 37.78788702 -24.47718048 34.39511108 C-24.49518835 31.13706125 -24.48254495 27.87916017 -24.47265625 24.62109375 C-24.48075317 23.41050293 -24.4888501 22.19991211 -24.49719238 20.95263672 C-24.42346606 14.29795285 -24.23736533 9.73081236 -19.94140625 4.49609375 C-13.82607818 -0.50754108 -7.65382554 -0.07214214 0 0 Z M-7.94140625 16.49609375 C-7.94140625 32.33609375 -7.94140625 48.17609375 -7.94140625 64.49609375 C7.89859375 64.49609375 23.73859375 64.49609375 40.05859375 64.49609375 C40.05859375 48.65609375 40.05859375 32.81609375 40.05859375 16.49609375 C24.21859375 16.49609375 8.37859375 16.49609375 -7.94140625 16.49609375 Z " fill="#000000" transform="translate(135.94140625,199.50390625)"/>
<path d="M0 0 C1.1735051 -0.00571014 2.34701019 -0.01142029 3.55607605 -0.01730347 C4.85013367 -0.01842133 6.14419128 -0.01953918 7.47746277 -0.02069092 C8.84893935 -0.02531836 10.22041464 -0.03034292 11.59188843 -0.03573608 C15.32339117 -0.04887017 19.05487592 -0.05530712 22.78639817 -0.05974674 C25.11718059 -0.06267614 27.44795808 -0.06678071 29.77873802 -0.07125092 C37.06963701 -0.08492914 44.36052474 -0.09459393 51.65143567 -0.09845281 C60.07048178 -0.10293307 68.48936549 -0.12047806 76.90836221 -0.1494534 C83.41373809 -0.17106612 89.91906826 -0.18115688 96.42447966 -0.18249393 C100.31079864 -0.18354235 104.19696503 -0.1894578 108.08324623 -0.20731354 C111.73992581 -0.22378701 115.396338 -0.22595339 119.05304146 -0.21717453 C121.03329027 -0.21603644 123.01353018 -0.22975983 124.99372864 -0.243927 C126.17569321 -0.23835785 127.35765778 -0.2327887 128.57543945 -0.22705078 C129.60064099 -0.22851734 130.62584253 -0.2299839 131.68211079 -0.2314949 C134.9468129 0.2027777 136.83294788 1.20854318 139.47819519 3.14044189 C141.02406395 6.23217941 140.7717904 8.73473742 140.47819519 12.14044189 C138.39076546 14.91747533 137.19558335 16.00743003 133.74827576 16.64659977 C132.16874115 16.65081015 132.16874115 16.65081015 130.55729675 16.65510559 C129.34594055 16.66783005 128.13458435 16.6805545 126.88652039 16.69366455 C125.54728503 16.68748237 124.20805158 16.68087635 122.86882019 16.67388916 C121.45600991 16.68094775 120.0432072 16.68969252 118.63041687 16.69999695 C114.79567289 16.72250663 110.96134131 16.71954793 107.1265564 16.71067548 C103.92560139 16.70556736 100.72472401 16.7128566 97.52377701 16.72014755 C89.97335787 16.73715117 82.42314082 16.73357569 74.87272644 16.71685791 C67.08131686 16.69992973 59.29046724 16.71577924 51.4991188 16.74808079 C44.81024146 16.77476186 38.12153859 16.78205694 31.43261337 16.77356571 C27.43730491 16.76863284 23.44233352 16.77087129 19.44706726 16.79135323 C15.69084813 16.80968786 11.93543582 16.80378014 8.17926025 16.77915382 C6.80059208 16.77413899 5.42186267 16.77765333 4.04324341 16.79030228 C2.16191344 16.8061986 0.28038811 16.78828319 -1.60090637 16.76863098 C-2.65392944 16.76804467 -3.70695251 16.76745836 -4.79188538 16.76685429 C-7.52180481 16.14044189 -7.52180481 16.14044189 -9.86061096 13.79258633 C-11.89178528 10.54975728 -12.16191253 8.90107476 -11.52180481 5.14044189 C-7.94656632 0.73098109 -5.52166037 0.01603901 0 0 Z " fill="#000000" transform="translate(227.5218048095703,351.85955810546875)"/>
<path d="M0 0 C1.39163354 -0.00677875 2.7832581 -0.01568334 4.17486572 -0.02655029 C7.94773657 -0.04932044 11.71992286 -0.04051734 15.49280548 -0.02465487 C19.44362718 -0.01198376 23.39439081 -0.02373932 27.34521484 -0.03158569 C33.97959909 -0.04067878 40.61370491 -0.02870348 47.24804688 -0.00488281 C54.91507721 0.02232808 62.58144273 0.01351365 70.24845695 -0.01401484 C76.83462649 -0.03671481 83.42059605 -0.03990173 90.00679207 -0.02682149 C93.93894471 -0.01903176 97.87078499 -0.01797193 101.80291748 -0.03450394 C105.50008975 -0.0489627 109.1964061 -0.03890286 112.89348602 -0.01003265 C114.89514493 -0.00028243 116.89687636 -0.01511015 118.89849854 -0.03067017 C128.67885021 0.08477503 128.67885021 0.08477503 131.78271484 2.99990845 C133.88994053 6.2929801 134.27545752 7.81227655 133.4765625 11.64697266 C131.82748062 14.22407905 131.08913118 15.21697425 128.4765625 16.64697266 C123.97734403 17.41605475 119.50802136 17.32935373 114.953125 17.29394531 C113.56149146 17.30072406 112.1698669 17.30962865 110.77825928 17.32049561 C107.00538843 17.34326575 103.23320214 17.33446265 99.46031952 17.31860018 C95.50949782 17.30592908 91.55873419 17.31768464 87.60791016 17.32553101 C80.97352591 17.33462409 74.33942009 17.3226488 67.70507812 17.29882812 C60.03804779 17.27161724 52.37168227 17.28043166 44.70466805 17.30796015 C38.11849851 17.33066013 31.53252895 17.33384705 24.94633293 17.32076681 C21.01418029 17.31297707 17.08234001 17.31191724 13.15020752 17.32844925 C9.45303525 17.34290801 5.7567189 17.33284817 2.05963898 17.30397797 C0.05798007 17.29422774 -1.94375136 17.30905546 -3.94537354 17.32461548 C-13.72572521 17.20917029 -13.72572521 17.20917029 -16.82958984 14.29403687 C-18.93681553 11.00096521 -19.32233252 9.48166877 -18.5234375 5.64697266 C-14.11069518 -1.24905026 -7.52014249 -0.05845936 0 0 Z " fill="#000000" transform="translate(234.5234375,247.35302734375)"/>
<path d="M0 0 C1.2113562 -0.01265396 2.4227124 -0.02530792 3.67077637 -0.03834534 C5.01001403 -0.02702943 6.34924746 -0.01520197 7.68847656 -0.00291443 C9.10128681 -0.00805345 10.51409065 -0.01533461 11.92687988 -0.02459717 C15.76174121 -0.04312219 19.59590789 -0.03016633 23.43074036 -0.01050687 C27.44341854 0.00587221 31.45605247 -0.00293222 35.46875 -0.00802612 C42.20746972 -0.01254793 48.94591195 0.00332797 55.68457031 0.03126526 C63.47592785 0.06331775 71.26678488 0.06330184 79.05817795 0.04605049 C86.55256172 0.03018784 94.04676195 0.03691721 101.5411377 0.0539875 C104.73088464 0.06086096 107.9204846 0.05982259 111.11022949 0.05244255 C114.86638745 0.04478245 118.6219757 0.05689598 122.3780365 0.08429146 C123.75669158 0.0911794 125.13539982 0.0912688 126.51405334 0.08407593 C128.39544217 0.07539105 130.27689804 0.09376359 132.15820312 0.11352539 C133.2112262 0.11633231 134.26424927 0.11913923 135.34918213 0.12203121 C138.79401816 0.76074269 139.98310893 1.86278919 142.07910156 4.62818909 C142.54828839 8.3816837 142.61046537 10.66667362 140.76660156 14.00318909 C137.67620779 16.97912383 134.51022995 16.75678875 130.43704224 16.76863098 C128.6747226 16.7771962 128.6747226 16.7771962 126.87680054 16.78593445 C125.5863382 16.78705231 124.29587585 16.78817017 122.96630859 16.7893219 C121.59468451 16.79395079 120.22306172 16.79897554 118.85144043 16.80436707 C115.12412899 16.81748538 111.39683556 16.82393479 107.66950464 16.82837772 C105.34089446 16.83130908 103.0122892 16.83541398 100.68368149 16.8398819 C93.39812528 16.85355469 86.11258033 16.86322269 78.82701218 16.86708379 C70.41646616 16.8715656 62.00608257 16.88912005 53.59558594 16.91808438 C47.09443615 16.93969634 40.59333209 16.94978779 34.09214675 16.95112491 C30.20919607 16.95217319 26.32639813 16.95808601 22.44348526 16.97594452 C18.79089621 16.99241713 15.13857486 16.99458481 11.48596191 16.98580551 C9.50810807 16.98466744 7.53026314 16.99839067 5.55245972 17.01255798 C3.7816806 17.00420425 3.7816806 17.00420425 1.97512817 16.99568176 C0.95122545 16.99714832 -0.07267727 16.99861488 -1.12760735 17.00012589 C-4.39061266 16.56564494 -6.27679963 15.55887885 -8.92089844 13.62818909 C-10.34752062 10.77494471 -10.23123711 8.7936436 -9.92089844 5.62818909 C-7.09018249 1.06335357 -5.33385402 0.00296982 0 0 Z " fill="#000000" transform="translate(225.9208984375,143.37181091308594)"/>
<path d="M0 0 C1.13021576 -0.0131424 1.13021576 -0.0131424 2.28326416 -0.02655029 C4.76495569 -0.04849233 7.24485402 -0.03401173 9.7265625 -0.01708984 C11.45622091 -0.02045951 13.18587702 -0.02531339 14.91552734 -0.03158569 C18.53701364 -0.03894992 22.15788247 -0.02826648 25.77929688 -0.00488281 C30.41674955 0.02360527 35.05275542 0.0071988 39.69015503 -0.02274513 C43.2607713 -0.0408306 46.83104568 -0.03505448 50.40167236 -0.02210617 C52.11126884 -0.01877558 53.82089656 -0.02284706 55.53045654 -0.03450394 C57.92217977 -0.04723405 60.31157482 -0.02780947 62.703125 0 C63.406651 -0.01012115 64.110177 -0.02024231 64.83502197 -0.03067017 C68.66324221 0.05161418 70.26362294 0.57656822 73.29052734 2.99990845 C75.3515625 5.64697266 75.3515625 5.64697266 75.9765625 8.64697266 C75.12579193 12.73067141 73.58905524 14.05503538 70.3515625 16.64697266 C67.59446761 17.14304087 65.45296939 17.33350547 62.703125 17.29394531 C61.57290924 17.30708771 61.57290924 17.30708771 60.41986084 17.32049561 C57.93816931 17.34243764 55.45827098 17.32795704 52.9765625 17.31103516 C51.24690409 17.31440483 49.51724798 17.31925871 47.78759766 17.32553101 C44.16611136 17.33289523 40.54524253 17.32221179 36.92382812 17.29882812 C32.28637545 17.27034004 27.65036958 17.28674651 23.01296997 17.31669044 C19.4423537 17.33477592 15.87207932 17.32899979 12.30145264 17.31605148 C10.59185616 17.3127209 8.88222844 17.31679237 7.17266846 17.32844925 C4.78094523 17.34117937 2.39155018 17.32175478 0 17.29394531 C-0.703526 17.30406647 -1.407052 17.31418762 -2.13189697 17.32461548 C-5.96011721 17.24233114 -7.56049794 16.71737709 -10.58740234 14.29403687 C-12.6484375 11.64697266 -12.6484375 11.64697266 -13.2734375 8.64697266 C-11.77380613 1.4487421 -6.63111506 -0.09539739 0 0 Z " fill="#000000" transform="translate(228.6484375,215.35302734375)"/>
<path d="M0 0 C0.73353195 -0.0049649 1.4670639 -0.00992981 2.2228241 -0.01504517 C4.65531343 -0.02967826 7.08773751 -0.03647116 9.52026367 -0.04199219 C11.20936587 -0.04774331 12.89846804 -0.05350105 14.58757019 -0.05926514 C18.13260198 -0.06977881 21.67761106 -0.07561887 25.22265625 -0.07910156 C29.76229947 -0.08458287 34.30164224 -0.10860146 38.84119129 -0.13707352 C42.3319333 -0.15571128 45.82260317 -0.16090613 49.31339073 -0.16243744 C50.98671801 -0.16546263 52.66004407 -0.17348668 54.33332253 -0.18662262 C56.67687333 -0.20370499 59.0196932 -0.20179766 61.36328125 -0.1953125 C62.05281891 -0.20452728 62.74235657 -0.21374207 63.45278931 -0.22323608 C67.75403736 -0.18600866 70.44971633 0.5376135 73.87573242 3.16113281 C75.32004097 6.04974991 75.25261748 7.95760982 74.87573242 11.16113281 C72.20298997 14.635371 70.70953877 16.01111084 66.34692383 16.79605103 C64.97402542 16.82556031 63.60036835 16.82785895 62.22729492 16.80810547 C61.09707916 16.82124786 61.09707916 16.82124786 59.94403076 16.83465576 C57.46233923 16.8565978 54.9824409 16.8421172 52.50073242 16.82519531 C50.77107401 16.82856498 49.0414179 16.83341886 47.31176758 16.83969116 C43.69028128 16.84705539 40.06941245 16.83637195 36.44799805 16.81298828 C31.81054537 16.7845002 27.1745395 16.80090667 22.53713989 16.8308506 C18.96652362 16.84893607 15.39624924 16.84315994 11.82562256 16.83021164 C10.11602608 16.82688105 8.40639836 16.83095253 6.69683838 16.84260941 C4.30511515 16.85533952 1.9157201 16.83591494 -0.47583008 16.80810547 C-1.17935608 16.81822662 -1.88288208 16.82834778 -2.60772705 16.83877563 C-6.43398995 16.75653336 -8.03848739 16.22960343 -11.06713867 13.81210327 C-13.12426758 11.16113281 -13.12426758 11.16113281 -13.68676758 8.09863281 C-13.00605242 4.54378701 -11.92354298 3.38408681 -9.12426758 1.16113281 C-6.18723006 -0.30738595 -3.22019218 0.00517491 0 0 Z " fill="#000000" transform="translate(229.124267578125,319.8388671875)"/>
<path d="M0 0 C0.77444458 -0.0087616 1.54888916 -0.01752319 2.34680176 -0.02655029 C4.90364817 -0.04853535 7.4587614 -0.0339961 10.015625 -0.01708984 C11.79394869 -0.02045827 13.57227013 -0.02531111 15.35058594 -0.03158569 C19.07639499 -0.03895576 22.80160443 -0.02824752 26.52734375 -0.00488281 C31.30279261 0.02360546 36.07683657 0.00720215 40.85223389 -0.02274513 C44.52403343 -0.04081472 48.19549998 -0.03506173 51.86730957 -0.02210617 C53.62797207 -0.0187712 55.38866482 -0.02286248 57.14929199 -0.03450394 C59.61075888 -0.0472077 62.06995246 -0.02784563 64.53125 0 C65.6223407 -0.01518173 65.6223407 -0.01518173 66.73547363 -0.03067017 C70.46694602 0.0475203 71.98185514 0.37513602 74.71777344 2.9960022 C76.61135205 6.23909158 76.89476851 7.95075455 76.265625 11.64697266 C74.03356069 14.49477884 72.71569501 15.49694932 69.265625 16.64697266 C66.91586112 16.7471477 64.5633138 16.78530215 62.21142578 16.79223633 C61.49725494 16.79559494 60.78308411 16.79895355 60.04727173 16.80241394 C57.68514265 16.81191669 55.32308451 16.81386676 52.9609375 16.81494141 C51.31810476 16.81815462 49.67527232 16.82151874 48.03244019 16.82502747 C44.58753801 16.83101715 41.14266092 16.83286755 37.69775391 16.83227539 C33.28711986 16.83217381 28.87664697 16.845822 24.4660511 16.8630476 C21.07224796 16.87417581 17.67848367 16.87619434 14.28466415 16.87566566 C12.65879639 16.87684469 11.03292758 16.88126216 9.40707779 16.88899803 C7.13080878 16.89881388 4.85488811 16.89591362 2.57861328 16.88989258 C0.63693771 16.89203011 0.63693771 16.89203011 -1.34396362 16.89421082 C-4.64592608 16.6534226 -6.83450673 16.21508298 -9.734375 14.64697266 C-12.07606264 11.1344412 -12.23061177 9.7822791 -11.734375 5.64697266 C-8.69016304 0.399049 -5.7076266 -0.07941747 0 0 Z " fill="#000000" transform="translate(227.734375,111.35302734375)"/>
</svg>
