<?xml version="1.0" encoding="UTF-8"?>
<svg version="1.1" xmlns="http://www.w3.org/2000/svg" width="512" height="512">
<path d="M0 0 C1.43719818 -0.00373896 2.87439433 -0.00834146 4.31158727 -0.01373065 C8.25195927 -0.02594504 12.19224625 -0.02570204 16.13263285 -0.02334189 C20.38557465 -0.02293335 24.63848933 -0.03397624 28.89141846 -0.04345703 C37.21910512 -0.06005782 45.54676347 -0.0655661 53.87446529 -0.06668179 C60.64198606 -0.06763239 67.40949749 -0.0717433 74.1770153 -0.07808304 C93.36272891 -0.09569044 112.54842015 -0.10492232 131.73414189 -0.10342209 C132.76808219 -0.10334218 133.80202249 -0.10326227 134.86729431 -0.10317993 C135.90249588 -0.10309817 136.93769745 -0.10301641 138.00426876 -0.10293217 C154.79337805 -0.1021187 171.58239776 -0.12127312 188.37148113 -0.14945666 C205.60894727 -0.17816483 222.84636967 -0.1919982 240.08386034 -0.19026911 C249.76213297 -0.18960465 259.44031159 -0.19512194 269.1185627 -0.21662521 C277.35569651 -0.23480948 285.59269366 -0.23920682 293.82983882 -0.22560637 C298.03315456 -0.21906366 302.23620791 -0.21900641 306.4394989 -0.23631287 C310.28672394 -0.25199068 314.13347737 -0.24923472 317.98069053 -0.2317446 C319.37290931 -0.22866305 320.76516283 -0.23235049 322.15734065 -0.24346475 C335.30347926 -0.3414709 335.30347926 -0.3414709 339.98716736 4.26742554 C343.8192415 9.01118321 344.5625442 12.73725352 344.49053192 18.67269897 C344.49634568 19.50850431 344.50215945 20.34430965 344.50814939 21.20544243 C344.52277522 24.01285405 344.50885211 26.81939494 344.49510193 29.62680054 C344.49970981 31.65710905 344.50606197 33.68741422 344.51401091 35.7177124 C344.53074268 41.30223743 344.52244028 46.88648979 344.51006603 52.47101593 C344.50103364 58.49155038 344.51497627 64.5120372 344.52598572 70.53256226 C344.5427651 81.64680181 344.5412819 92.76096615 344.53033984 103.87520623 C344.52028127 114.14234857 344.51764911 124.40945897 344.52243042 134.67660522 C344.52273596 135.35740465 344.5230415 136.03820408 344.5233563 136.7396338 C344.52460163 139.50315656 344.52587523 142.2666793 344.52719535 145.03020203 C344.5394339 170.95905747 344.52833348 196.8878574 344.50680777 222.81670427 C344.48782505 245.85759943 344.48952355 268.89840616 344.50865173 291.93930054 C344.53006598 317.82044838 344.53856598 343.70154717 344.52620268 369.58270264 C344.52491979 372.34121703 344.52366843 375.09973144 344.52243042 377.85824585 C344.52211411 378.53747235 344.5217978 379.21669884 344.52147191 379.91650796 C344.51692024 390.17769966 344.52224641 400.43885593 344.53234863 410.70004272 C344.54377693 422.36640422 344.54055936 434.03268155 344.51922566 445.69903374 C344.50869559 451.65416264 344.50462683 457.60911183 344.51782227 463.5642395 C344.52971131 469.01208524 344.5232411 474.45958411 344.50191206 479.90739822 C344.4974312 481.88173707 344.49974533 483.85610501 344.50941521 485.83042526 C344.52152738 488.50808791 344.50915699 491.18455263 344.49053192 493.8621521 C344.49989659 494.63401289 344.50926125 495.40587368 344.51890969 496.20112419 C344.42876211 502.65731115 342.10374811 506.18722718 337.60293007 510.61067963 C331.93514943 513.2076621 326.27515227 512.81821533 320.13496399 512.77536011 C318.70290099 512.7799705 317.27084273 512.78632435 315.83879435 512.79426908 C311.90764116 512.810968 307.97687636 512.80271353 304.04572177 512.79032421 C299.80422252 512.78127779 295.56279028 512.79524175 291.32130432 512.8062439 C283.01214661 512.82404084 274.70313334 512.82018311 266.39396994 512.80859333 C259.6379105 512.79956026 252.88189154 512.79833448 246.12582779 512.8026886 C245.16427969 512.80330153 244.2027316 512.80391446 243.21204568 512.80454597 C241.25860764 512.80582488 239.30516962 512.80712174 237.35173161 512.80843633 C219.02717367 512.81984652 200.70269572 512.80672346 182.3781509 512.78523487 C166.66689097 512.76738058 150.95574934 512.77045337 135.24449158 512.78890991 C116.99486647 512.81033837 98.74531161 512.81872985 80.49567568 512.80646086 C78.54758431 512.80518669 76.59949292 512.80392921 74.65140152 512.8026886 C73.69294962 512.8020715 72.73449772 512.80145439 71.74700182 512.80081859 C65.00488989 512.79737034 58.26282263 512.80318308 51.52071762 512.81260681 C43.29542754 512.82385087 35.07029006 512.82073698 26.84501736 512.79948384 C22.65110184 512.78900309 18.4574403 512.78480025 14.26352692 512.79808044 C10.41778254 512.81007339 6.57252552 512.80332938 2.72682483 512.78217024 C0.69002066 512.77564445 -1.34681783 512.78857878 -3.38358557 512.80239916 C-13.50238191 512.71675501 -23.2118323 511.04981748 -31.45033264 504.76742554 C-32.66462952 503.84896851 -32.66462952 503.84896851 -33.90345764 502.91195679 C-34.59955139 502.36926147 -35.29564514 501.82656616 -36.01283264 501.26742554 C-36.89970764 500.66930054 -37.78658264 500.07117554 -38.70033264 499.45492554 C-47.68718938 490.95384484 -53.37386453 478.94191921 -54.18838501 466.60942078 C-54.24246823 463.70041656 -54.23807263 460.79786548 -54.20814514 457.88851929 C-54.20531525 456.83584366 -54.20248535 455.78316803 -54.1995697 454.69859314 C-54.18845826 451.36725037 -54.16337062 448.03618576 -54.13783264 444.70492554 C-54.12779116 442.43344507 -54.11866736 440.16196035 -54.11048889 437.89047241 C-54.08854861 432.34936338 -54.05516214 426.80841434 -54.01283264 421.26742554 C-55.17041077 421.30223022 -56.32798889 421.33703491 -57.52064514 421.37289429 C-59.05969305 421.4010476 -60.59875675 421.4283461 -62.13783264 421.45492554 C-63.27865295 421.49263062 -63.27865295 421.49263062 -64.44252014 421.53109741 C-69.40282308 421.59523926 -72.70700733 421.00159214 -77.01283264 418.26742554 C-81.33821194 413.59133981 -82.39354197 409.83094722 -82.28236389 403.61508179 C-81.75657271 399.03536442 -79.95048054 395.99091235 -76.52845764 392.94711304 C-69.3899979 388.43030002 -62.8136518 390.26742554 -54.01283264 390.26742554 C-54.01283264 375.74742554 -54.01283264 361.22742554 -54.01283264 346.26742554 C-59.95283264 346.26742554 -65.89283264 346.26742554 -72.01283264 346.26742554 C-80.15568978 340.83885411 -80.15568978 340.83885411 -82.01283264 335.26742554 C-82.55508723 330.60048032 -82.48267824 327.18971505 -80.32533264 322.95492554 C-76.79736938 318.85486013 -74.31319946 316.59251724 -69.01283264 315.26742554 C-64.06283264 315.26742554 -59.11283264 315.26742554 -54.01283264 315.26742554 C-54.01283264 300.74742554 -54.01283264 286.22742554 -54.01283264 271.26742554 C-59.95283264 271.26742554 -65.89283264 271.26742554 -72.01283264 271.26742554 C-79.64919628 266.17651645 -79.64919628 266.17651645 -82.01283264 261.26742554 C-82.80999655 256.27294965 -82.59191157 252.47012793 -80.38783264 247.89242554 C-78.01283264 245.26742554 -78.01283264 245.26742554 -72.01283264 241.26742554 C-66.07283264 241.26742554 -60.13283264 241.26742554 -54.01283264 241.26742554 C-54.01283264 226.74742554 -54.01283264 212.22742554 -54.01283264 197.26742554 C-58.96283264 197.26742554 -63.91283264 197.26742554 -69.01283264 197.26742554 C-74.96573968 195.64390543 -77.51011473 193.10941795 -81.01283264 188.26742554 C-82.74205676 184.80897729 -82.36419707 181.05577289 -82.01283264 177.26742554 C-80.09220117 171.90987458 -77.09608832 168.80905338 -72.01283264 166.26742554 C-66.07283264 166.26742554 -60.13283264 166.26742554 -54.01283264 166.26742554 C-54.01283264 151.74742554 -54.01283264 137.22742554 -54.01283264 122.26742554 C-59.29283264 122.26742554 -64.57283264 122.26742554 -70.01283264 122.26742554 C-74.97547125 120.63497863 -77.60992771 119.3547513 -80.51283264 115.07992554 C-82.53676923 110.88812799 -82.69495082 106.82597145 -82.01283264 102.26742554 C-80.32119206 97.54863865 -78.15234646 95.06159737 -74.01283264 92.26742554 C-71.30567022 91.36503806 -69.77506496 91.14891251 -67.00111389 91.16976929 C-65.86512756 91.17460327 -65.86512756 91.17460327 -64.70619202 91.17953491 C-63.52766663 91.19210327 -63.52766663 91.19210327 -62.32533264 91.20492554 C-61.52804749 91.20943726 -60.73076233 91.21394897 -59.90931702 91.21859741 C-57.94379007 91.23036703 -55.97830179 91.24830205 -54.01283264 91.26742554 C-54.01949448 90.69272522 -54.02615631 90.1180249 -54.03302002 89.52590942 C-54.0999066 83.49026135 -54.14485211 77.45472026 -54.17762756 71.41879272 C-54.19262116 69.1726554 -54.21302285 66.92654688 -54.239151 64.68051147 C-54.27595196 61.43336839 -54.2926538 58.18661569 -54.30580139 54.93930054 C-54.32128525 53.95129456 -54.3367691 52.96328857 -54.35272217 51.94534302 C-54.35599516 38.07745846 -50.12836044 25.12858136 -40.63002014 14.81820679 C-28.71534294 3.39277961 -16.07694898 -0.03960363 0 0 Z M-16.45033264 35.13461304 C-17.22377014 36.12848022 -17.22377014 36.12848022 -18.01283264 37.14242554 C-18.54908264 37.79984741 -19.08533264 38.45726929 -19.63783264 39.13461304 C-23.34688332 44.88785642 -23.27988454 49.93801618 -23.20814514 56.59945679 C-23.20531525 57.59120407 -23.20248535 58.58295135 -23.1995697 59.60475159 C-23.18840068 62.76326713 -23.16330191 65.92149611 -23.13783264 69.07992554 C-23.12779861 71.22510373 -23.1186735 73.37028637 -23.11048889 75.51547241 C-23.08847209 80.76622075 -23.05502707 86.01680266 -23.01283264 91.26742554 C-21.27646545 91.32349976 -21.27646545 91.32349976 -19.50502014 91.38070679 C-17.96592703 91.44639979 -16.42686594 91.51284596 -14.88783264 91.57992554 C-14.12728577 91.60248413 -13.36673889 91.62504272 -12.58314514 91.64828491 C-7.7146618 91.87911817 -4.2553368 92.64419778 -0.01283264 95.26742554 C3.83775878 99.516354 4.25748448 103.51866882 4.22154236 109.04476929 C3.90962803 112.00275688 2.71728334 113.88851606 0.98716736 116.26742554 C0.98716736 116.92742554 0.98716736 117.58742554 0.98716736 118.26742554 C-7.88987406 121.86622611 -11.49288947 121.54742909 -23.01283264 122.26742554 C-23.01283264 136.78742554 -23.01283264 151.30742554 -23.01283264 166.26742554 C-17.07283264 166.59742554 -11.13283264 166.92742554 -5.01283264 167.26742554 C2.18716736 172.06742554 2.18716736 172.06742554 3.98716736 177.26742554 C4.76278345 182.65364837 4.03042909 186.6500629 0.98716736 191.26742554 C-6.16933429 198.0569271 -12.57646833 196.57166792 -23.01283264 197.26742554 C-23.01283264 211.78742554 -23.01283264 226.30742554 -23.01283264 241.26742554 C-17.07283264 241.59742554 -11.13283264 241.92742554 -5.01283264 242.26742554 C2.18716736 247.06742554 2.18716736 247.06742554 3.98716736 252.26742554 C4.75831168 257.6225944 4.08999227 261.71661567 0.98716736 266.26742554 C-5.01283264 270.26742554 -5.01283264 270.26742554 -23.01283264 271.26742554 C-23.01283264 285.78742554 -23.01283264 300.30742554 -23.01283264 315.26742554 C-18.06283264 315.59742554 -13.11283264 315.92742554 -8.01283264 316.26742554 C-2.68400143 317.85812142 -0.0942146 319.6453526 2.98716736 324.26742554 C4.71775596 327.72860274 4.33239502 331.47631438 3.98716736 335.26742554 C2.02102785 341.05661408 0.50600859 341.58819805 -5.01283264 345.26742554 C-10.95283264 345.59742554 -16.89283264 345.92742554 -23.01283264 346.26742554 C-23.01283264 360.78742554 -23.01283264 375.30742554 -23.01283264 390.26742554 C-17.73283264 390.59742554 -12.45283264 390.92742554 -7.01283264 391.26742554 C-4.04283264 392.75242554 -4.04283264 392.75242554 -1.01283264 394.26742554 C-0.35283264 394.26742554 0.30716736 394.26742554 0.98716736 394.26742554 C1.29654236 395.05117554 1.60591736 395.83492554 1.92466736 396.64242554 C2.91591774 399.19072682 2.91591774 399.19072682 3.98716736 401.26742554 C4.57892615 406.95741396 4.23763934 411.39171756 0.98716736 416.26742554 C-2.39812527 419.33534698 -5.51778472 420.34663354 -10.02455139 420.58383179 C-10.78187561 420.62572632 -11.53919983 420.66762085 -12.31947327 420.71078491 C-13.10515686 420.75010132 -13.89084045 420.78941772 -14.70033264 420.82992554 C-15.4976178 420.87310913 -16.29490295 420.91629272 -17.11634827 420.96078491 C-19.08164711 421.06669922 -21.04721761 421.16755104 -23.01283264 421.26742554 C-23.11470554 427.52949035 -23.18449545 433.79133946 -23.2325592 440.05404663 C-23.25260732 442.18205756 -23.27985318 444.31001386 -23.31459045 446.43783569 C-23.36340812 449.50616987 -23.3858699 452.57377227 -23.40345764 455.64242554 C-23.42410278 456.58545532 -23.44474792 457.52848511 -23.46601868 458.50009155 C-23.46839982 465.59590056 -21.86428421 470.75063528 -17.37220764 476.29086304 C-16.84111389 476.73687866 -16.31002014 477.18289429 -15.76283264 477.64242554 C-15.24205139 478.10390991 -14.72127014 478.56539429 -14.18470764 479.04086304 C-1.65556209 486.11667545 22.63586338 482.26742554 31.98716736 482.26742554 C31.98716736 333.10742554 31.98716736 183.94742554 31.98716736 30.26742554 C8.56035476 27.98660175 8.56035476 27.98660175 -16.45033264 35.13461304 Z M62.98716736 30.26742554 C62.98716736 67.22742554 62.98716736 104.18742554 62.98716736 142.26742554 C66.218634 139.03595889 68.69020409 136.04927629 71.36216736 132.39242554 C94.2305646 102.12301479 129.63231755 82.68173641 166.98716736 77.26742554 C205.51449979 71.94232466 244.87309742 81.72056894 276.23716736 104.70492554 C281.73875292 108.9628016 286.92955301 113.49365689 291.98716736 118.26742554 C293.00037048 119.20135132 293.00037048 119.20135132 294.03404236 120.15414429 C298.74671871 124.65003752 302.68755506 129.58177514 306.57505798 134.78793335 C308.5953523 137.49304563 310.58919855 139.86945673 312.98716736 142.26742554 C312.98716736 105.30742554 312.98716736 68.34742554 312.98716736 30.26742554 C230.48716736 30.26742554 147.98716736 30.26742554 62.98716736 30.26742554 Z M99.32701111 145.72494507 C77.56400567 170.77936715 67.9189964 202.34903781 69.98716736 235.26742554 C72.7304651 265.77391244 88.20365373 294.10691348 110.98716736 314.26742554 C136.2027522 335.21514277 167.74886798 344.91124543 200.34947205 342.06088257 C230.951219 338.60331654 258.88326676 323.2393097 278.92466736 299.88461304 C299.106888 274.27459821 309.0762059 243.17246008 305.52232361 210.52914429 C301.52273461 179.47894856 285.71131164 150.7515273 260.98716736 131.26742554 C211.10307283 93.89277431 141.61565068 99.0286246 99.32701111 145.72494507 Z M62.98716736 306.26742554 C62.98716736 364.34742554 62.98716736 422.42742554 62.98716736 482.26742554 C145.48716736 482.26742554 227.98716736 482.26742554 312.98716736 482.26742554 C312.98716736 424.18742554 312.98716736 366.10742554 312.98716736 306.26742554 C310.13800668 309.11658622 307.74397818 311.8020018 305.33531189 314.9871521 C281.75737937 346.12266168 247.37238986 365.05282896 208.98716736 371.26742554 C168.11708411 376.70245278 128.9052677 365.62557579 96.08091736 341.09555054 C84.30975316 331.82744999 74.59168837 321.34875679 66.03404236 309.09164429 C65.35857361 308.1596521 64.68310486 307.22765991 63.98716736 306.26742554 C63.65716736 306.26742554 63.32716736 306.26742554 62.98716736 306.26742554 Z " fill="#000000" transform="translate(125.01283264160156,-0.267425537109375)"/>
<path d="M0 0 C2.85297577 2.38853785 4.30735569 3.79963923 5.6875 7.25 C5.91619139 10.26872632 5.86516109 13.22976154 5.6875 16.25 C6.54085937 16.34796875 7.39421875 16.4459375 8.2734375 16.546875 C12.07812226 17.33044852 14.89699301 18.66026556 18.3125 20.5 C19.97152344 21.37398437 19.97152344 21.37398437 21.6640625 22.265625 C25.35284156 24.68668412 27.71604047 27.30708094 29.6875 31.25 C30.21690021 36.56135952 30.35113629 40.92272741 27.9375 45.75 C23.9556469 50.17428123 21.06889895 52.06720605 15.0234375 52.53125 C10.22540033 52.46987721 6.58949699 50.77252043 2.3125 48.75 C-3.84766636 46.03799816 -9.48337908 43.56312551 -16.3125 45.25 C-19.54088773 46.58016164 -19.54088773 46.58016164 -21.3125 49.25 C-22.06459621 53.38652913 -21.90477043 55.36159435 -19.5625 58.875 C-14.31615774 63.3739583 -6.94111936 65.26185932 -0.58203125 67.65234375 C14.0935683 73.24385222 26.77383647 80.31000671 33.6875 95.125 C37.89833392 105.15497245 38.61645904 117.93081051 35.0625 128.3125 C29.59960985 140.82922725 21.26751095 149.78130097 8.6875 155.25 C7.6975 155.25 6.7075 155.25 5.6875 155.25 C5.73390625 155.90226563 5.7803125 156.55453125 5.828125 157.2265625 C6.07180607 163.12712549 5.82171915 166.66883824 1.6875 171.25 C-2.18356763 174.36836003 -6.38563816 175.39517457 -11.3125 175.25 C-15.60449639 174.37757968 -18.5410487 173.00114995 -21.6875 169.9375 C-24.4078126 165.43852148 -25.62211576 161.51346794 -25.3125 156.25 C-26.29992187 156.16363281 -27.28734375 156.07726562 -28.3046875 155.98828125 C-32.79921956 155.34248915 -36.44256049 153.51804033 -40.4375 151.4375 C-41.12714844 151.09396484 -41.81679688 150.75042969 -42.52734375 150.39648438 C-53.40214062 144.85512039 -53.40214062 144.85512039 -55.3125 139.25 C-56.00031032 133.9554601 -55.96734652 129.55969305 -53.5625 124.75 C-49.67541718 120.43101909 -46.77811842 118.5696172 -40.9375 117.8125 C-35.5155874 117.84256606 -31.13009231 120.45240329 -26.3515625 122.78125 C-19.31208277 126.1833636 -11.6436675 127.91598984 -4 125.52734375 C-0.79513671 124.07219443 1.33967272 122.64130569 3.6875 120 C4.99964703 116.39159568 5.54688809 112.99205996 4.6875 109.25 C1.99016017 104.16655186 -0.43160567 102.2581121 -5.75 100.1875 C-6.36254639 99.94201416 -6.97509277 99.69652832 -7.60620117 99.44360352 C-9.50062434 98.6903581 -11.40360976 97.96571027 -13.3125 97.25 C-28.22472703 91.64540461 -42.95958199 85.49385441 -50.3125 70.25 C-50.62960937 69.63382812 -50.94671875 69.01765625 -51.2734375 68.3828125 C-55.01709018 59.55603508 -55.01128927 46.6560455 -51.75 37.6875 C-47.12255662 28.30362527 -40.00668449 20.31672122 -30.1171875 16.375 C-28.1875 15.8125 -28.1875 15.8125 -25.3125 15.25 C-25.23 14.05375 -25.1475 12.8575 -25.0625 11.625 C-24.51283327 7.31164303 -23.13841127 4.62539401 -20.3125 1.25 C-13.7324689 -3.52052255 -7.17995511 -3.79318383 0 0 Z " fill="#000000" transform="translate(322.3125,137.75)"/>
<path d="M0 0 C1.25759628 -0.00511093 2.51519257 -0.01022186 3.81089783 -0.01548767 C7.24894918 -0.02883952 10.68689035 -0.02946065 14.12496257 -0.02692437 C17.00013754 -0.02585213 19.87529045 -0.03074446 22.75046068 -0.03552979 C29.53580579 -0.04661164 36.32109554 -0.04706975 43.10644531 -0.04101562 C50.09563987 -0.03497532 57.08463313 -0.0472912 64.07379335 -0.06858569 C70.08502733 -0.08622408 76.09619737 -0.09219956 82.10745627 -0.08894795 C85.69307626 -0.08713861 89.27855264 -0.08973625 92.86414909 -0.10366249 C96.86399197 -0.11861746 100.86342722 -0.10925124 104.86328125 -0.09765625 C106.63478546 -0.10912186 106.63478546 -0.10912186 108.44207764 -0.12081909 C116.21661076 -0.07100778 121.39394493 0.50948187 127.37133789 5.8371582 C130.99703927 9.99605096 130.8369872 13.13196678 130.77368164 18.51293945 C130.26521284 23.57614283 127.78884135 26.09404449 124.16578674 29.40345764 C119.18087511 32.60589653 113.11392844 31.82075668 107.41015625 31.77636719 C105.43116081 31.78447166 105.43116081 31.78447166 103.41218567 31.79273987 C99.80471393 31.80666773 96.19772056 31.79554455 92.59027553 31.77902865 C88.81030729 31.76514917 85.03036601 31.77164142 81.25038147 31.77516174 C74.90447302 31.77786125 68.558754 31.76440956 62.21289062 31.74121094 C54.88054545 31.71459126 47.54851669 31.71285865 40.21613973 31.7245993 C33.15533402 31.73538459 26.09464255 31.72918489 19.0338459 31.71504402 C16.03195044 31.70929185 13.03013878 31.70936079 10.02824211 31.71410942 C5.83636163 31.71977511 1.64495237 31.70054613 -2.546875 31.67871094 C-3.79117279 31.68321259 -5.03547058 31.68771423 -6.31747437 31.69235229 C-8.03126534 31.67749535 -8.03126534 31.67749535 -9.77967834 31.66233826 C-10.77018723 31.65990836 -11.76069613 31.65747847 -12.78122044 31.65497494 C-17.88134384 30.94250337 -21.3595072 28.01479345 -24.48803711 24.00512695 C-26.72783559 20.18885493 -26.94523895 16.40507278 -26.05834961 12.1262207 C-24.56708804 7.51530849 -22.74762483 4.8407752 -18.50366211 2.2746582 C-12.53957044 -0.43536349 -6.41769677 -0.01343952 0 0 Z " fill="#000000" transform="translate(260.503662109375,403.725341796875)"/>
</svg>
